<?xml version="1.0" encoding="utf-8"?>
<!-- Generator: Adobe Illustrator 23.0.1, SVG Export Plug-In . SVG Version: 6.00 Build 0)  -->
<svg version="1.1" id="Layer_1" xmlns="http://www.w3.org/2000/svg" xmlns:xlink="http://www.w3.org/1999/xlink" x="0px" y="0px"
	 viewBox="0 0 414.01 478.94" style="enable-background:new 0 0 414.01 478.94;" xml:space="preserve">
<style type="text/css">
	.st0{opacity:0.07;fill:#263866;}
	.st1{fill:#334A88;}
	.st2{fill:#5E70A1;}
	.st3{fill:#475C94;}
	.st4{fill:#263866;}
	.st5{fill:#74A8D7;}
	.st6{opacity:0.47;fill:#263866;}
	.st7{fill:#071835;}
	.st8{fill:#39465D;}
	.st9{fill:#F3B800;}
	.st10{opacity:0.57;}
	.st11{fill:#B68A00;}
	.st12{fill:#E0E4F0;}
	.st13{fill:#ECEEF4;}
	.st14{opacity:0.43;fill:#A8ABB4;}
	.st15{fill:#FFFFFF;}
	.st16{fill:#F9F9FB;}
	.st17{opacity:0.47;}
	.st18{opacity:0.52;fill:#B68A00;}
</style>
<g>
	<ellipse class="st0" cx="377.22" cy="436.48" rx="32" ry="9.5"/>
	<g id="XMLID_217_">
		<g id="XMLID_222_">
			<path id="XMLID_223_" class="st1" d="M348.01,423.99c-7.38-4.78-11.79-12.89-11.79-21.69l0-10.9c0-1.42,0.49-2.83,1.51-3.82
				c1.83-1.79,4.41-2.08,6.5-0.88l6.88,3.97l-3,5.2l-5.89-3.39v9.83c0,6.75,3.38,12.98,9.05,16.65L348.01,423.99z"/>
		</g>
		<path id="XMLID_221_" class="st1" d="M347.22,383.98l0.05,49.81c0.72,3.65,10.51,6.54,22.48,6.54c11.97,0,21.75-2.89,22.48-6.54
			l0.05-49.81H347.22z"/>
		<path id="XMLID_220_" class="st2" d="M374.22,440.2c5.19-0.3,9.74-1.16,13-2.38v-53.85h-13V440.2z"/>
		<ellipse id="XMLID_219_" class="st3" cx="370.2" cy="384.04" rx="22.72" ry="6.97"/>
		<path id="XMLID_218_" class="st4" d="M391.79,383.81c0,3.53-9.67,6.39-21.6,6.39s-21.6-2.86-21.6-6.39c0-3.53,9.67-6.39,21.6-6.39
			S391.79,380.28,391.79,383.81z"/>
	</g>
	<g>
		<g>
			<path class="st5" d="M314.01,74.42c-7.25,71.96-43.31,138.76-99.56,184.23c-1.48,1.2-3.45-1.02-1.96-2.22
				c55.64-44.99,91.39-110.99,98.57-182.19C311.24,72.35,314.2,72.52,314.01,74.42L314.01,74.42z"/>
		</g>
		<path class="st5" d="M311.64,84.08c0,0,18.6-17.87,5.39-35C317.03,49.09,297.91,55.94,311.64,84.08z"/>
		<path class="st5" d="M307.05,110.02c0,0,25.78-0.72,27.52-22.28C334.57,87.74,315.81,79.96,307.05,110.02z"/>
		<path class="st5" d="M296.68,143.99c0,0,25.59,3.22,30.6-17.82C327.27,126.17,309.92,115.62,296.68,143.99z"/>
		<path class="st5" d="M281.52,175.18c0,0,23.97,9.53,34.09-9.58C315.61,165.6,301.46,151.04,281.52,175.18z"/>
		<path class="st5" d="M262.5,203.66c0,0,20.15,16.1,35.4,0.77C297.9,204.43,288.6,186.37,262.5,203.66z"/>
		<path class="st5" d="M241.81,229.27c0,0,15.51,20.6,34.1,9.54C275.91,238.81,271.39,219.01,241.81,229.27z"/>
		<path class="st5" d="M306.78,110.01c0,0,5.35-25.23-15.2-31.98C291.57,78.03,279.61,94.44,306.78,110.01z"/>
		<path class="st5" d="M296.4,144.01c0,0,5.35-25.23-15.2-31.98C281.2,112.03,269.24,128.44,296.4,144.01z"/>
		<path class="st5" d="M281.66,175.37c0,0,5.35-25.23-15.2-31.98C266.46,143.39,254.49,159.8,281.66,175.37z"/>
		<path class="st5" d="M263.82,205.35c0,0,5.35-25.23-15.2-31.98C248.61,173.37,236.65,189.78,263.82,205.35z"/>
		<path class="st5" d="M242.81,229.8c0,0,5.35-25.23-15.2-31.98C227.61,197.82,215.64,214.23,242.81,229.8z"/>
	</g>
	<g>
		<g>
			<path class="st4" d="M24.86,75.6c5.61,72.1,40.14,139.71,95.33,186.46c1.45,1.23,3.47-0.94,2.01-2.17
				c-54.6-46.25-88.83-113.04-94.38-184.4C27.67,73.59,24.71,73.69,24.86,75.6L24.86,75.6z"/>
		</g>
		<path class="st4" d="M27,85.31c0,0-18.18-18.29-4.59-35.11C22.41,50.2,41.37,57.49,27,85.31z"/>
		<path class="st4" d="M31.01,111.35c0,0-25.76-1.31-27.01-22.9C4,88.44,22.93,81.09,31.01,111.35z"/>
		<path class="st4" d="M40.6,145.55c0,0-25.66,2.63-30.18-18.52C10.42,127.03,28,116.88,40.6,145.55z"/>
		<path class="st4" d="M55.03,177.07c0,0-24.18,8.98-33.86-10.36C21.17,166.72,35.65,152.48,55.03,177.07z"/>
		<path class="st4" d="M73.41,205.98c0,0-20.51,15.64-35.41-0.04C38,205.94,47.7,188.1,73.41,205.98z"/>
		<path class="st4" d="M93.51,232.05c0,0-15.98,20.25-34.31,8.76C59.2,240.82,64.16,221.12,93.51,232.05z"/>
		<path class="st4" d="M31.28,111.34c0,0-4.77-25.35,15.93-31.62C47.21,79.71,58.79,96.39,31.28,111.34z"/>
		<path class="st4" d="M40.87,145.57c0,0-4.77-25.35,15.93-31.62C56.8,113.94,68.39,130.62,40.87,145.57z"/>
		<path class="st4" d="M54.89,177.26c0,0-4.77-25.35,15.93-31.62C70.82,145.64,82.41,162.32,54.89,177.26z"/>
		<path class="st4" d="M72.05,207.64c0,0-4.77-25.35,15.93-31.62C87.98,176.01,99.57,192.69,72.05,207.64z"/>
		<path class="st4" d="M92.49,232.56c0,0-4.77-25.35,15.93-31.62C108.42,200.94,120.01,217.62,92.49,232.56z"/>
	</g>
	<g>
		<path id="XMLID_124_" class="st1" d="M59.86,216.03l-9.21,71.24c-1.2,9.66,2.98,19.21,10.89,24.89l32,22.96l6.85-36.48
			l-17.86-14.19l12.61-64.35L59.86,216.03z"/>
		<path class="st6" d="M70.59,312.15c-7.91-5.68-15.68-13.52-14.49-23.19c0,0,23.23-56.92,12.2-71.23
			c-1.37-1.78-8.94-0.79-8.94-0.79l-8.71,70.31c-1.2,9.66,2.98,19.21,10.89,24.89l32,22.96l1.07-2.85L70.59,312.15z"/>
		<path id="XMLID_123_" class="st1" d="M273.19,216.03l9.21,71.24c1.2,9.66-2.98,19.21-10.89,24.89l-32,22.96l-6.85-36.48
			l17.86-14.19l-12.61-64.35L273.19,216.03z"/>
		<path class="st6" d="M262.47,312.15c7.91-5.68,15.68-13.52,14.49-23.19c0,0-23.23-56.92-12.2-71.23c1.37-1.78,8.94-0.79,8.94-0.79
			l8.71,70.31c1.2,9.66-2.98,19.21-10.89,24.89l-32,22.96l-1.07-2.85L262.47,312.15z"/>
		<g id="XMLID_122_">
			<path class="st7" d="M239.92,110.39c-2.13-2.56-4.61-4.83-6.68-7.44c-3.27-4.11-5.47-9.06-6.36-14.23
				c-1.65-9.66,1.27-19.69-1.06-29.26c-2.35-9.64-10.49-11.16-14.53-19.03c-1.87-3.65-2.68-7.73-3.85-11.66
				c-1.85-6.23-4.76-12.32-9.52-16.74c-11.73-10.91-34.87-11.05-48.78-5.09c-14.99,6.42-26.12,19.59-34.14,33.41
				c-6.08,10.48-4.36,23.14-12.14,33.08c-3.78,4.83-9.1,8.49-11.95,13.93c-3.38,6.44-2.69,14.14-2.54,21.42
				c0.14,6.95-0.65,13.81-5.12,19.37c-5.3,6.59-13.27,11.1-11.18,20.94c1.37,6.46,6.52,11.66,12.48,14.5
				c5.97,2.84,12.7,3.62,19.31,3.83c15.64,0.51,32.22-2.32,44.14-12.45c3.54-3.01,7.04-7.29,11.81-8.33
				c4.21-0.91,5.31,1.03,8.89,2.31c8.52,3.04,20.74,2.33,28.88-1.5c4.97-2.34,9.53-6.22,15.02-6.34c7.17-0.15,11.29,6.13,18.56,5.43
				c5.75-0.55,11.38-4.34,13.83-9.6C249.01,128.31,246,117.7,239.92,110.39z"/>
		</g>
		<g>
			<g>
				<path class="st8" d="M170.21,148.93c-3.19-1.14-4.42-2.79-7.63-2.49c2.19,0.25,3.48,1.55,6.13,2.49
					c3.56,1.27,7.76,1.85,12.04,1.86C176.99,150.66,173.35,150.06,170.21,148.93z"/>
			</g>
			<g>
				<path class="st8" d="M149.13,6.77c-14.99,6.42-26.12,19.59-34.14,33.41c-6.08,10.48-4.36,23.14-12.14,33.08
					c-3.78,4.83-9.1,8.49-11.95,13.93c-3.38,6.44-2.69,14.14-2.54,21.42c0.14,6.95-0.65,13.81-5.12,19.37h1.51
					c4.47-5.56,3.77-11.38,3.62-18.32c-0.15-7.27,0.66-16.02,4.03-22.46c2.85-5.43,8-10.97,11.78-15.8
					c7.78-9.94,6.23-20.73,12.31-31.21c8.02-13.82,19.14-26.99,34.14-33.41c5.79-2.48,13.17-3.88,20.67-3.91
					C163.3,2.69,155.31,4.13,149.13,6.77z"/>
			</g>
			<g>
				<path class="st8" d="M214.11,141.1c-0.23,0-0.45,0.05-0.68,0.07c6.65,0.33,10.75,6.03,17.73,5.36c0.04,0,0.09-0.02,0.13-0.02
					C224.87,146.35,220.8,140.95,214.11,141.1z"/>
			</g>
		</g>
		<path id="XMLID_121_" class="st1" d="M143.45,112.68c0,0,1,10.79,0,17.88l-45.94,21.26c-7.91,1.8-0.55,86.15-0.55,86.15h130.1
			c0,0,13.99-88,5.6-90.42l-43.73-18.52l-3.14-17.95L143.45,112.68z"/>
		<path class="st6" d="M145.2,196.25c9.36-7.88,10.74-41.62,10.74-41.62c3.34-21.38,17.37-35.93,17.37-35.93l12.68-6.54l-0.19-1.07
			l-42.35,1.59c0,0,1,10.79,0,17.88l-45.94,21.26c-7.91,1.8-0.55,86.15-0.55,86.15h28.61C125.57,237.98,138.99,201.47,145.2,196.25z
			"/>
		<path id="XMLID_108_" class="st9" d="M168.63,186.18c0,0-24.17-62.86-25.17-55.76l-60.56,13.77c-7.91,1.8-14.07,8.01-15.79,15.94
			L56.75,237.2c11.42-1.91,33.59-2.31,40.2,5.15c2.86,3.22,0.4,12.71,0.4,12.71l10.13,23.81l112.99,3.55l14.12-44.59
			c0,0,22.76-7.84,41.94-4.03l-11.3-72.03c-1.73-8.55-8.08-15.43-16.47-17.84l-59.82-15.03l-18.09,57.42L168.63,186.18z"/>
		<g class="st10">
			<path class="st11" d="M79.14,160.13c1.73-7.93,7.88-14.14,15.79-15.94l51.01-11.6c-1.39-2.44-2.32-3.44-2.5-2.17l-60.56,13.77
				c-7.91,1.8-14.07,8.01-15.79,15.94L56.75,237.2c3.36-0.56,14.19-1.17,14.19-1.17C76.99,215.05,79.14,160.13,79.14,160.13z"/>
			<path class="st11" d="M270.75,233.02c1.94,0.17,3.88,0.4,5.78,0.78l-0.16-1.02C274.47,232.8,272.59,232.88,270.75,233.02z"/>
		</g>
		<polygon id="XMLID_153_" class="st12" points="63.79,325.33 74.36,371.18 167.78,418.23 258.94,354.86 293.55,313.39 		"/>
		<path id="XMLID_107_" class="st0" d="M73.25,324.94l0.61,25.54l62.08,10.4l28.91,17.52c3.51,2.12,7.87,2.24,11.46,0.27
			c23.9-13.08,83.29-36.48,83.29-36.48l1.35-25.06L73.25,324.94z"/>
		<path id="XMLID_149_" class="st13" d="M166.9,402.5l111.47-83.09l15.19-6.01c5.94-2.35,12.46-2.77,18.65-1.21l11.52,2.91
			c5.04,1.27,9.43,4.38,12.31,8.71l4.07,6.12c3.31,4.97,3.83,18.84,3.83,18.84c0.24,7.4-2.18,14.74-7.18,20.2
			c-1.2,1.31-2.45,2.4-3.67,3.14L197.3,440.18L166.9,402.5z"/>
		<path class="st14" d="M340.11,329.92l-4.07-6.12c-1.57-2.36-3.6-4.34-5.92-5.87l3.97,5.97c3.31,4.97,3.83,18.84,3.83,18.84
			c0.24,7.4-2.18,14.74-7.18,20.2c-1.2,1.31-2.29,2.78-3.67,3.14c-37.52,9.64-107.54,53.92-107.54,53.92
			c-11.8-6.64-29.37-6.64-45.83-22.56c-1.52-1.47-6.79,5.06-6.79,5.06l30.4,37.68l135.79-68.08c1.22-0.73,2.47-1.82,3.67-3.14
			c5-5.46,7.42-12.8,7.18-20.2C343.94,348.76,343.42,334.89,340.11,329.92z"/>
		<polygon id="XMLID_106_" class="st1" points="223.22,429.21 272.22,438.08 272.22,467.98 223.22,467.98 		"/>
		<path class="st6" d="M223.36,467.98h48.86v-7.53c0,0-39.6-9.34-49.12-1.54C220.01,461.45,223.36,467.98,223.36,467.98z"/>
		<path id="XMLID_105_" class="st13" d="M54.67,320.39l-11.75-2.72c-8.73-2.02-17.84,1.23-23.3,8.34L13,334.59
			c-6.04,7.86-7.48,18.33-3.78,27.52l1.54,3.81c5.25,13.04,15.45,23.47,28.36,29.01l176.1,75.6c4.02,1.72,8.59-0.79,9.28-5.11
			l4.02-25.07c0.71-4.43-1.57-8.81-5.61-10.77l-56.02-27.1l-84.58-51.5c-4-2.43-7.24-5.93-9.36-10.1l-5.27-10.34
			C65.06,325.42,60.29,321.69,54.67,320.39z"/>
		<path class="st14" d="M49.66,391.93c-13.59-3.6-23.11-15.98-28.36-29.01l-1.54-3.81c-3.7-9.2-2.26-19.67,3.78-27.52l6.61-8.59
			c1.88-2.44,4.21-4.39,6.79-5.87c-6.71,0.24-13.11,3.4-17.33,8.88L13,334.59c-6.04,7.86-7.48,18.33-3.78,27.52l1.54,3.81
			c5.25,13.04,15.45,23.47,28.36,29.01l176.1,75.6c3.56,1.53,2.96,2.79,4.3-0.65C219.52,469.89,97.8,404.67,49.66,391.93z"/>
		<path id="XMLID_104_" class="st9" d="M215.28,425.69l8.45-4.12c5.18-2.53,11.01-3.41,16.7-2.54l58.07,8.86
			c7.24,1.1,13.85,4.74,18.67,10.25l6.48,7.41c3.43,3.93,5.32,8.96,5.32,14.17l0,0c0,5.2-3.21,9.86-8.07,11.7l-6.62,2.51
			l-30.91-3.04l-11.15-2.53v-29.89l-48.86-8.87L215.28,425.69z"/>
		<g>
			<path class="st11" d="M320.89,463.9l-1.4,1.07c-4.07,3.12-9.31,4.29-14.32,3.19l-21.8-4.79l-11.15-2.53v7.53l11.15,2.53
				l30.91,3.04l6.37-2.41c4.82-1.83,8.25-6.35,8.32-11.5c0.02-1.56-0.14-3.1-0.45-4.6C327.49,459.24,324.72,462.45,320.89,463.9z"/>
		</g>
		<path id="XMLID_156_" class="st15" d="M323.87,445.56l-6.52-7.41c-4.85-5.51-11.5-9.15-18.78-10.25l-58.42-8.86
			c-5.73-0.87-11.59,0.02-16.8,2.54l-8.5,4.12l1.61,0.78l3.83-1.86c5.21-2.53,11.07-3.41,16.8-2.54l58.42,8.86
			c7.28,1.1,13.94,4.74,18.78,10.25l6.52,7.41c3.45,3.92,5.35,8.96,5.35,14.17c0,2.61-0.81,5.08-2.24,7.12
			c3.26-2.31,5.3-6.06,5.3-10.16C329.22,454.52,327.32,449.48,323.87,445.56z"/>
		<path id="XMLID_103_" class="st1" d="M135.43,448.05l-31.35,8.15l3.1-32.05L146.42,441l0,0
			C143.6,444.46,139.75,446.93,135.43,448.05z"/>
		<path class="st6" d="M135.43,440.52l-30.6,7.96l-0.75,7.72l31.35-8.15c4.32-1.12,8.17-3.59,11-7.05l-5.99-2.57
			C138.86,439.32,137.2,440.06,135.43,440.52z"/>
		<path id="XMLID_102_" class="st9" d="M104.08,455.82l-22.29,12.16h-4c-7.16,0-13.58-4.56-15.76-11.39
			c-1.83-5.74-2.96-13.65-1.27-23.73c0.62-3.68,2.72-6.94,5.78-9.08L82,412.96l25.17,10.81L104.08,455.82z"/>
		<path class="st11" d="M83.37,460.98h-4.25c-7.61,0-14.43-4.85-16.75-12.1c-1.65-5.15-2.74-11.97-1.96-20.42
			c-0.45,1.07-0.82,2.19-1.02,3.36c-1.76,10.64-0.56,19,1.37,25.07c2.31,7.25,9.14,12.1,16.75,12.1h4.25l23.69-12.92l0.73-7.52
			L83.37,460.98z"/>
		<path id="XMLID_101_" class="st15" d="M65.87,457.38c-2.18-6.52-3.43-15.78-0.61-27.79c0.36-1.52,1.3-2.87,2.65-3.76l17.24-11.5
			l-3.35-1.37L62.5,425.83c-1.34,0.89-2.29,2.24-2.65,3.76c-2.82,12.01-1.57,21.27,0.61,27.79c2.32,6.95,9.18,11.59,16.83,11.59
			h4.27l0.15-0.08C74.47,468.51,68.09,464.02,65.87,457.38z"/>
		<path id="XMLID_100_" class="st16" d="M257.34,347.98H77.09c-2.14,0-3.88-1.73-3.88-3.88V236.85c0-2.14,1.73-3.88,3.88-3.88
			h180.25c2.14,0,3.88,1.73,3.88,3.88V344.1C261.22,346.24,259.48,347.98,257.34,347.98z"/>
		<g id="XMLID_93_">
			<path class="st1" d="M199.64,52.18c-2.89-10.79-7.75-17.5-20.27-20.67c-8.85-2.24-18.23-2.01-27.43-1.77
				c-2.72,0.07-5.52,0.16-7.99,1.16c-8.58,3.48-5.78,13.77-6.62,20.19c-0.58,4.46-2.88,8.59-4.12,12.94
				c-2.46,8.7-0.59,17.85,1.49,26.63c2.37,10.03,5.58,24.59,16.86,29.9c12.05,5.68,26.25,0.51,34.25-8.22
				c6.13-6.68,12.28-17.41,11.77-26.18c-0.36-6.16-1.88-12.47,0.09-18.38c0.78-2.33,2.07-4.52,2.61-6.9
				C200.91,58.01,200.4,55.04,199.64,52.18z"/>
		</g>
		<g class="st17">
			<path class="st4" d="M167.6,30.31c0.15-0.15,0.26-0.32,0.39-0.48c-5.32-0.35-10.71-0.23-16.05-0.08
				c-2.72,0.07-5.52,0.16-7.99,1.16c-8.58,3.48-5.78,13.77-6.62,20.19c-0.58,4.46-2.88,8.59-4.12,12.94
				c-2.46,8.7-0.59,17.85,1.49,26.63c1.64,6.94,3.69,16.04,8.52,22.76c2.3-3.94,4.27-7.99,3.95-12.5
				c-0.27-3.84-0.56-7.79-2.28-11.23c-1.78-3.57-5.13-6.98-4.22-10.86c0.62-2.62,3.03-4.37,4.43-6.66
				c5.02-8.16-6.02-16.7,0.46-26.01C150.79,38.67,161.54,36.74,167.6,30.31z"/>
		</g>
		<path class="st18" d="M226.51,232.78c0,0,3.14-4.8,3.14-5.93c0-1.13,2.68-27.86,2.68-27.86l6.73,34.3L226.51,232.78z"/>
		<path class="st18" d="M109.56,232.78c0,0-3.14-4.8-3.14-5.93c0-1.13-2.68-27.86-2.68-27.86l-6.73,34.3L109.56,232.78z"/>
	</g>
	<g>
		<path class="st13" d="M162.93,307.98c-0.31,0-0.63,0-0.94,0c-0.33-0.13-0.69-0.16-1.02-0.28c-1.23-0.48-2.18-1.34-3.02-2.32
			c-2.5-2.92-4.4-6.19-5.53-9.88c-0.56-1.81-0.96-3.66-1.12-5.55c-0.02-0.21,0.01-0.43-0.09-0.63c0-0.78,0-1.55,0-2.33
			c0.06-0.05,0.05-0.12,0.05-0.18c0.12-1.46,0.38-2.9,0.92-4.27c1.18-3.06,3.22-5.3,6.3-6.51c1.94-0.76,3.92-0.94,5.94-0.3
			c1.04,0.33,2.05,0.75,3.07,1.14c0.95,0.37,1.9,0.46,2.87,0.08c1.2-0.46,2.4-0.91,3.61-1.35c0.46-0.16,0.93-0.29,1.42-0.33
			c2.8-0.28,5.49,0.32,7.97,2.12c0.55,0.4,1.03,0.91,1.41,1.48c0.33,0.49,0.58,0.59,0.27,0.79c-0.8,0.52-1.5,1.15-2.14,1.87
			c-2.66,3.01-2.95,7.1-1.33,10.43c0.97,1.98,2.53,3.39,4.48,4.37c0.12,0.06,0.25,0.08,0.34,0.2c-0.05,0.11-0.11,0.22-0.11,0.34
			c-0.1,1.3-0.31,2.59-1.18,3.56c-1.8,2.02-2.99,4.55-5.13,6.27c-0.2,0.16-0.43,0.31-0.66,0.44c-2.41,1.3-4.23,0.75-5.95-0.06
			c-2.41-1.13-4.83-1.16-7.27-0.1c-0.78,0.34-1.56,0.69-2.4,0.86C163.44,307.87,163.18,307.87,162.93,307.98z"/>
		<path class="st13" d="M177.81,264.98c0.09,0.32,0.09,0.65,0.08,0.98c-0.08,2.32-0.93,4.34-2.43,6.07
			c-1.28,1.49-2.89,2.48-4.85,2.84c-0.46,0.08-0.93,0.08-1.4,0.08c-0.01,0-0.03-0.01-0.03-0.02c-0.39-2.94,1.25-5.51,3.08-7.96
			c0.17-0.23,0.42-0.39,0.7-0.47c1.47-0.43,2.89-1.37,4.5-1.48c0.05,0,0.1,0,0.14-0.05C177.68,264.98,177.75,264.98,177.81,264.98z"
			/>
	</g>
	<g>
		<path d="M195.28,77.07l0.03-0.17c0.15-1,0.39-2.58,0.58-4.92h1.18c0.99,1,1.86,0.3,2.07-0.67l0.31-1.45
			c0.09-0.44,0.38-0.81,0.78-1.02c0.74-0.39,1.18-1.19,1.12-2.02l-0.06-0.83c-0.05-0.74-0.57-1.35-1.28-1.53
			c-9.97-2.47-20.37-2.17-30.07,0.86c-0.61,0.19-1.04,0.7-1.15,1.31c-1.97-0.43-4.03-0.43-6-0.01c-0.11-0.61-0.53-1.12-1.14-1.32
			c-9.69-3.07-20.09-3.42-30.07-1c-0.71,0.17-1.23,0.78-1.29,1.52l-0.06,0.83c-0.06,0.84,0.37,1.63,1.12,2.03
			c0.39,0.21,0.68,0.58,0.77,1.02l0.31,1.45c0.09,0.41,0.29,0.77,0.57,1.05c0.39,0.39,0.92,0.63,1.5,0.78h1.18
			c0.19,1.2,0.42,2.78,0.56,3.78l0.03,0.17c0.32,2.17,1.33,4.09,2.79,5.56c1.88,1.89,4.52,3.04,7.37,3c0.83-0.01,2.52,0,3.46,0.01
			c2.77,0.03,5.35-1,7.26-2.91c1.94-1.93,2.99-4.5,2.94-7.24l-0.03-1.54c-0.01-0.73-0.03-1.5-0.04-2.07
			c1.13-0.08,2.1-0.86,2.41-1.94c2.2-0.5,4.51-0.49,6.71,0.01c0.13,0.45,0.37,0.85,0.69,1.17c0.45,0.45,1.06,0.73,1.72,0.78
			c-0.01,0.59-0.03,1.38-0.05,2.13l-0.03,1.48c-0.06,2.73,0.97,5.31,2.91,7.25c1.91,1.91,4.48,2.96,7.25,2.94
			c0.88-0.01,2.59-0.01,3.46,0.01C190.14,85.68,194.53,82.02,195.28,77.07z M159.48,75.37c0.04,2.57-0.94,4.98-2.76,6.8
			c-1.8,1.79-4.23,2.76-6.83,2.73c-0.94-0.01-2.63-0.02-3.47-0.01c-4.78,0.07-8.89-3.39-9.56-8.05l-0.02-0.17
			c-0.21-1.46-0.61-4.18-0.78-5.56c-0.17-1.36,0.22-2.7,1.08-3.79c0.89-1.12,2.17-1.82,3.59-1.96c4.98-0.52,9.96-0.15,14.79,1.08
			c0.91,0.24,1.71,0.72,2.35,1.36c0.94,0.95,1.52,2.25,1.54,3.67c0.01,0.58,0.03,1.51,0.04,2.37L159.48,75.37z M185.08,84.98
			c-0.87-0.02-2.59-0.01-3.47-0.01c-2.61,0.02-5.03-0.96-6.82-2.76c-1.82-1.82-2.79-4.24-2.73-6.81l0.03-1.48
			c0.02-0.87,0.04-1.83,0.05-2.42c0.04-2.36,1.66-4.42,3.91-5c4.84-1.21,9.82-1.55,14.8-1.02c1.22,0.13,2.32,0.67,3.17,1.52
			c0.14,0.14,0.28,0.3,0.41,0.46c0.86,1.09,1.24,2.44,1.07,3.79c-0.17,1.38-0.58,4.09-0.8,5.55l-0.03,0.17
			C193.98,81.63,189.85,85.07,185.08,84.98z"/>
	</g>
	<g id="XMLID_28_">
		<path class="st7" d="M126.8,38.34c0.03,0.24,0.07,0.47,0.12,0.71c0.82,3.93,3.18,7.45,3.79,11.42c0.78,5.06-7.58,21.44-3.89,24.69
			c4.57,4.02,17.38-11.94,19.99-15.77c5.4-7.93,8.01-18.42,4.3-27.26c6.98-0.58,12.39,5.59,17.19,10.68
			c9.62,10.2,21.57,18.17,34.68,23.13c1.16,0.44,2.53,0.83,3.58,0.15c16.79-11.07-5.53-45.46-17.13-51.18
			c-7.22-3.56-15.38-4.91-23.44-4.93c-4.8-0.01-9.7,0.47-14.11,2.36c-2.34,1-4.49,2.38-6.61,3.79
			C138.97,20.31,125.68,29.32,126.8,38.34z"/>
	</g>
</g>
</svg>
