<?xml version="1.0" encoding="utf-8"?>
<!-- Generator: Adobe Illustrator 23.0.1, SVG Export Plug-In . SVG Version: 6.00 Build 0)  -->
<svg version="1.1" id="Layer_1" xmlns="http://www.w3.org/2000/svg" xmlns:xlink="http://www.w3.org/1999/xlink" x="0px" y="0px"
	 viewBox="0 0 553.7 491.9" style="enable-background:new 0 0 553.7 491.9;" xml:space="preserve">
<style type="text/css">
	.st0{fill:#071835;}
	.st1{fill:#74A8D7;}
	.st2{fill:#F4F3F2;}
	.st3{fill:#F3B800;}
	.st4{fill:#FFFFFF;}
	.st5{font-family:'Montserrat-Medium';}
	.st6{font-size:16.3428px;}
	.st7{letter-spacing:43;}
	.st8{fill:#E4EBEF;}
	.st9{fill:#C7DCEF;}
	.st10{fill:#334A88;}
	.st11{opacity:0.31;fill:#071835;enable-background:new    ;}
	.st12{fill:#577EA1;}
</style>
<path class="st0" d="M90,239.1c0,0,15,14,5,25"/>
<g>
	<g>
		<path class="st1" d="M67.7,63.6c21.6,69,70.3,127.2,134.6,160.5c1.7,0.9,3.2-1.7,1.5-2.6C140.2,188.6,91.9,131.1,70.5,62.8
			C70,61,67.1,61.7,67.7,63.6L67.7,63.6z"/>
	</g>
	<path class="st1" d="M71.9,72.6c0,0-21.8-13.8-12.3-33.2C59.6,39.4,79.7,42.2,71.9,72.6z"/>
	<path class="st1" d="M81.7,97c0,0-25.4,4.5-31.4-16.3C50.2,80.7,67,69.4,81.7,97z"/>
	<path class="st1" d="M98.6,128.2c0,0-24.4,8.3-33.6-11.3C65.1,116.9,80,103.1,98.6,128.2z"/>
	<path class="st1" d="M119.8,155.7c0,0-21.6,14.2-35.3-2.5C84.4,153.2,95.4,136.1,119.8,155.7z"/>
	<path class="st1" d="M144.1,179.8c0,0-16.5,19.8-34.5,7.9C109.6,187.7,115.1,168.1,144.1,179.8z"/>
	<path class="st1" d="M169.5,200.7c0,0-11.1,23.3-31.5,16.2C138.1,216.9,138.5,196.6,169.5,200.7z"/>
	<path class="st1" d="M81.9,97c0,0-10.3-23.6,8.5-34.4C90.4,62.6,105.4,76.3,81.9,97z"/>
	<path class="st1" d="M98.9,128.2c0,0-10.3-23.6,8.5-34.4C107.4,93.8,122.4,107.5,98.9,128.2z"/>
	<path class="st1" d="M119.7,156c0,0-10.3-23.6,8.5-34.4C128.1,121.6,143.1,135.2,119.7,156z"/>
	<path class="st1" d="M143.2,181.7c0,0-10.3-23.6,8.5-34.4C151.6,147.3,166.7,161,143.2,181.7z"/>
	<path class="st1" d="M168.7,201.5c0,0-10.3-23.6,8.5-34.4C177.1,167.1,192.1,180.7,168.7,201.5z"/>
</g>
<g>
	<path id="XMLID_507_" class="st2" d="M499.2,420.5h-397V50.2c0-3.9,3.2-7.1,7.1-7.1h382.8c3.9,0,7.1,3.2,7.1,7.1V420.5z"/>
	<path id="XMLID_506_" class="st3" d="M499.2,54.2v-31c0-8.3-6.7-15-15-15h-367c-8.3,0-15,6.7-15,15v31H499.2z"/>
	<path id="XMLID_505_" class="st4" d="M139.8,31.2c0,2.6-2.1,4.7-4.7,4.7c-2.6,0-4.7-2.1-4.7-4.7c0-2.6,2.1-4.7,4.7-4.7
		C137.6,26.5,139.8,28.6,139.8,31.2z"/>
	<path id="XMLID_175_" class="st4" d="M161,31.2c0,2.6-2.1,4.7-4.7,4.7c-2.6,0-4.7-2.1-4.7-4.7c0-2.6,2.1-4.7,4.7-4.7
		C158.9,26.5,161,28.6,161,31.2z"/>
	<path id="XMLID_174_" class="st4" d="M182.2,31.2c0,2.6-2.1,4.7-4.7,4.7c-2.6,0-4.7-2.1-4.7-4.7c0-2.6,2.1-4.7,4.7-4.7
		C180.1,26.5,182.2,28.6,182.2,31.2z"/>
</g>
<text transform="matrix(1 0 0 1 119.015 81.7622)" class="st1 st5 st6">&lt;!DOCTYPE html&gt;</text>
<text transform="matrix(1 0 0 1 119.015 101.3622)" class="st0 st5 st6">&lt;html</text>
<text transform="matrix(1 0 0 1 168.215 101.3622)" class="st1 st5 st6"> lang=&quot;en&quot; dir=&quot;ltr&quot;</text>
<text transform="matrix(1 0 0 1 319.915 101.3622)" class="st0 st5 st6">&gt;</text>
<text transform="matrix(1 0 0 1 119.015 120.9622)" class="st1 st5 st6 st7"> </text>
<text transform="matrix(1 0 0 1 168.015 120.9622)" class="st0 st5 st6">&lt;head&gt;</text>
<text transform="matrix(1 0 0 1 119.015 140.5622)" class="st1 st5 st6 st7">  </text>
<text transform="matrix(1 0 0 1 217.115 140.5622)" class="st0 st5 st6">&lt;meta</text>
<text transform="matrix(1 0 0 1 270.415 140.5622)" class="st1 st5 st6"> charset=&quot;utf-8&quot;</text>
<text transform="matrix(1 0 0 1 399.315 140.5622)" class="st0 st5 st6">&gt;</text>
<text transform="matrix(1 0 0 1 119.015 160.1622)" class="st1 st5 st6 st7">  </text>
<text transform="matrix(1 0 0 1 217.115 160.1622)" class="st0 st5 st6">&lt;title&gt;</text>
<text transform="matrix(1 0 0 1 268.715 160.1622)" class="st1 st5 st6">Contact Me</text>
<text transform="matrix(1 0 0 1 364.715 160.1622)" class="st0 st5 st6">&lt;/title&gt;</text>
<text transform="matrix(1 0 0 1 119.015 179.8622)" class="st1 st5 st6 st7"> </text>
<text transform="matrix(1 0 0 1 168.015 179.8622)" class="st0 st5 st6">&lt;/head&gt;</text>
<text transform="matrix(1 0 0 1 119.015 199.4622)" class="st0 st5 st6 st7"> </text>
<text transform="matrix(1 0 0 1 168.015 199.4622)" class="st0 st5 st6">&lt;body&gt;</text>
<text transform="matrix(1 0 0 1 119.015 219.0622)" class="st1 st5 st6 st7">  </text>
<text transform="matrix(1 0 0 1 217.115 219.0622)" class="st0 st5 st6">&lt;h1&gt;</text>
<text transform="matrix(1 0 0 1 253.315 219.0622)" class="st1 st5 st6">Call me,</text>
<text transform="matrix(1 0 0 1 319.315 219.0622)" class="st0 st5 st6">&lt;/h1&gt;</text>
<text transform="matrix(1 0 0 1 119.015 238.6622)" class="st1 st5 st6 st7">  </text>
<text transform="matrix(1 0 0 1 217.115 238.6622)" class="st0 st5 st6">&lt;h2&gt;</text>
<text transform="matrix(1 0 0 1 256.615 238.6622)" class="st1 st5 st6">Beep me,</text>
<text transform="matrix(1 0 0 1 335.515 238.6622)" class="st0 st5 st6">&lt;/h2&gt;</text>
<text transform="matrix(1 0 0 1 380.815 238.6622)" class="st1 st5 st6"> </text>
<text transform="matrix(1 0 0 1 119.015 258.2622)" class="st1 st5 st6 st7">  </text>
<text transform="matrix(1 0 0 1 217.115 258.2622)" class="st0 st5 st6">&lt;h3&gt;</text>
<text transform="matrix(1 0 0 1 256.615 258.2622)" class="st1 st5 st6">if you wanna reach me.</text>
<text transform="matrix(1 0 0 1 449.515 258.2622)" class="st0 st5 st6">&lt;/h3&gt;</text>
<text transform="matrix(1 0 0 1 119.015 277.8622)" class="st0 st5 st6 st7"> </text>
<text transform="matrix(1 0 0 1 168.015 277.8622)" class="st0 st5 st6">&lt;/body&gt;</text>
<text transform="matrix(1 0 0 1 119.015 297.4622)" class="st0 st5 st6">&lt;/html&gt;</text>
<g>
	<g>
		<path class="st8" d="M538,474.7H331.8c-1.1,0-2-0.9-2-2V303.1c0-1.1,0.9-2,2-2H538c1.1,0,2,0.9,2,2v169.6
			C540,473.8,539.1,474.7,538,474.7z"/>
		<g>
			<rect x="345.5" y="318.1" class="st9" width="178.8" height="136.1"/>
		</g>
		<g>
			<polygon class="st10" points="373.2,383.7 345.7,423.4 345.5,454.2 416.3,454.2 			"/>
		</g>
		<g>
			<polygon class="st10" points="406.7,438.8 427.7,407.6 456.5,454.2 416.3,454.2 			"/>
		</g>
		<path class="st3" d="M491.2,355.6c0,10.8-8.8,19.6-19.6,19.6c-10.8,0-19.6-8.8-19.6-19.6s8.8-19.6,19.6-19.6
			C482.4,336,491.2,344.8,491.2,355.6z"/>
		<polygon class="st11" points="427.7,407.6 431.6,433 436.4,433 445,454.2 456.5,454.2 		"/>
		<polygon class="st11" points="373.2,383.7 373.2,403.9 380.9,411 379.2,418.9 396.8,454.2 416.3,454.2 		"/>
	</g>
</g>
<g>
	<g>
		<ellipse id="XMLID_132_" class="st1" cx="129.7" cy="462.3" rx="50.1" ry="16.3"/>
		<path id="XMLID_182_" class="st12" d="M129.7,476.7c-26.6,0-48.4-6.8-50-15.3c-0.1,0.3-0.1,0.6-0.1,1c0,9,22.4,16.3,50.1,16.3
			s50.1-7.3,50.1-16.3c0-0.3,0-0.6-0.1-1C178.2,469.9,156.4,476.7,129.7,476.7z"/>
		<path id="XMLID_155_" class="st12" d="M137.4,463.9h-15.3c-1.6,0-2.8-1.3-2.8-2.8v-28.9h20.9v28.9
			C140.2,462.7,138.9,463.9,137.4,463.9z"/>
		<path id="XMLID_131_" class="st3" d="M69.1,259.9l-2.4,13.5c-1.4,7.8-0.3,15.8,3,22.9l32.9,71.1h47.6l26.4-26.7l-45.1-34.1
			L120,276.1c-4.2-9-19-21.6-29-21.6H75.5C72.3,254.5,69.6,256.8,69.1,259.9z"/>
		<path id="XMLID_128_" class="st0" d="M191.1,329.7l55.5,10c8.8,3.8,14.1,12.8,13.3,22.3l-7.2,82h-20.4l-1.5-66.8
			c-0.1-4.6-3.3-8.6-7.8-9.7h-0.1h-61.4l-0.3-19.6L191.1,329.7z"/>
		<polygon id="XMLID_127_" class="st10" points="232.3,444 232.3,462.8 261.4,462.8 250.8,457.3 251,444 		"/>
		<polygon id="XMLID_150_" class="st10" points="260,349.6 277.3,356.7 288.4,329.8 279.3,337.6 267.1,332.2 		"/>
		<path id="XMLID_126_" class="st0" d="M130.7,336l42.4-30.1c7.5-6.4,18-7.9,27-4l69.4,30.4l-5.5,20.8l-60-26.3
			c-4.1-1.8-8.9-0.3-11.3,3.5l-26,38h-59.3l0,0C110,353.3,118.4,344.7,130.7,336z"/>
		<path id="XMLID_125_" class="st3" d="M229.4,458.9v16c0,2.1,1.7,3.7,3.7,3.7h46.5c3.8,0,6.9-3.1,6.9-6.9v-1.5l-14.2-1.8
			l-20.4-10.6l-4-1.8l-2.9,4.4l-10.2,0.4l-3.5-2.8C230.5,457.3,229.4,457.9,229.4,458.9z"/>
		<path class="st4" d="M279.6,476.3h-46.5c-2.1,0-3.7-1.7-3.7-3.7v2.3c0,2.1,1.7,3.7,3.7,3.7h46.5c3.8,0,6.9-3.1,6.9-6.9v-1.5h-0.1
			C286,473.6,283.2,476.3,279.6,476.3z"/>
		<path id="XMLID_120_" class="st3" d="M272.6,358l14.8,6.1c1.9,0.8,4.1-0.1,4.9-2l17.7-43c1.5-3.5-0.2-7.6-3.8-9l-1.3-0.6
			l-7.1,12.4l-17.5,14.8l-3.2,3l2.9,4.4l-3.6,9.6l-3.9,2.2C271.6,356.3,271.7,357.6,272.6,358z"/>
		<path class="st4" d="M306.3,310l-1.3-0.6l-0.5,0.8c3.2,1.6,4.7,5.4,3.3,8.8l-17.7,43c-0.4,1.1-1.3,1.8-2.3,2.1
			c1.8,0.6,3.8-0.3,4.6-2.1l17.7-43C311.5,315.5,309.8,311.4,306.3,310z"/>
		<path id="XMLID_178_" class="st1" d="M220.2,345.1c-66.2,17.5-134-22-151.5-88.2c0-0.2-0.1-0.3-0.1-0.5
			c-5.1-19.4-31.2-22.8-40.7-5.1C13.6,278,9,309.9,17.3,341.5c17.5,66.2,85.3,105.6,151.5,88.2C218.7,416.5,234.8,341.2,220.2,345.1
			z"/>
		<path id="XMLID_184_" class="st12" d="M170.1,418.1c-66.2,17.5-134-22-151.5-88.2c-3.5-13.2-4.7-26.6-3.9-39.5
			c-2.6,16.5-2,33.9,2.6,51.1c17.5,66.2,85.3,105.6,151.5,88.2c38.8-10.2,57.2-58,56.6-77C220.5,375,202.4,409.5,170.1,418.1z"/>
		<polygon id="XMLID_119_" class="st3" points="83.2,279 98,308.9 121.3,294.5 107,268 		"/>
		<path id="XMLID_91_" class="st10" d="M121.3,294.5l9.9,16.5l59.9,18.8l13.8,8.5c1.3,0.8,2.2,2,2.7,3.5l3.3,11
			c0.4,1.2,0.2,2.5-0.4,3.7l-1.2,2.4c-1.1,2-3.1,3.3-5.4,3.3H202c-2.1,0-4-1.5-4.5-3.6l-1.5-6.8l-11.7-10.6l-57.9-2.7
			c-3.2-0.1-6.1-1.7-8.1-4.1L98,308.9L121.3,294.5z"/>
		<path class="st11" d="M184,339.6l-57.7-7c-3.2-0.1-5.9-1.9-6.7-4.3c-2.7-8-10.4-26.2-10.4-26.2L98.1,309l20.2,25.3
			c2,2.5,4.9,4,8.1,4.1l57.9,2.7L184,339.6z"/>
	</g>
	<g>
		<path class="st10" d="M107,221.1c-1.3-2.1-5-6-5-6v-4c-3.9-23.4-24.7-8-24.7-8C67.2,204.6,66,227.2,66,227.2
			c3.1,14.2,17.2,19.4,17.2,19.4L71.8,251l8.1,3l13,1c0.1-3.6-1-13.6,2-16c10-1,14-2,10.9-7.1l-0.8-4l-0.7-3.7l2.2-2
			C107,222,107.3,221.5,107,221.1z"/>
		<path class="st11" d="M82,255.1l4-1c0.2-1.4,1.1-3.7,1.4-4.9c0.8-2.8,1.1-5.7,0.9-8.5c-0.1-1.3-0.3-2.4-0.6-3.2
			c-2.1-5.3,1.1-10.6,5.2-14.5c1.7-1.3,2.6-3.3,2.5-5.4l-0.3-3.7c-3.4-12.6-16.3-9.5-21.6-8.9c-6.6,5.7-7.5,22.3-7.5,22.3
			c3.1,14.2,17.2,19.4,17.2,19.4l-11.4,4.4L82,255.1z"/>
		<g>
			<path class="st0" d="M93.6,191.3c-5.3-3.8-12.5-3-18.9-1.6c-3.3,0.7-6.7,1.6-9.6,3.5c-8.1,5.2-10.1,15.9-14.4,24.5
				c-3.9,7.8-10.2,14.4-17.9,18.6c-5.3,2.9-11.3,4.8-15.3,9.2c-5.1,5.7-9.1,13.9-7.1,21.5c0.1,0.4,0.4,0.7,0.4,1.2
				c-0.3,7.1-5.1,13.6-4.7,20.7c0.2,4.2,1.8,7.3,4.6,8.9c3.7,2.1,8.1,4,12.2,3.2c8-1.6,17.3-2.9,21.8-9.6c2-3,2.4-6.9,4.4-10
				c2.4-3.7,6.8-5.5,10.8-7.3c6.7-3,13.3-6.7,18.1-12.3c4.7-5.6,7.3-13.5,5-20.5c-1-3-2.9-5.9-3.1-9.1c-0.3-5.1,5.6-7.2,8.7-10
				C96.1,215.3,104.5,199.1,93.6,191.3z"/>
		</g>
	</g>
</g>
<path class="st3" d="M113,338.1"/>
<g>
	<circle id="XMLID_170_" class="st10" cx="502.4" cy="134.6" r="38"/>
	<g id="XMLID_168_">
		<polygon id="XMLID_169_" class="st4" points="497.4,150 484.2,136.8 491.7,129.3 497.4,134.9 513.1,119.2 520.7,126.8 		"/>
	</g>
</g>
<g>
	<path id="XMLID_2_" class="st3" d="M486.9,182.3h6.4c1.3,0,2.3-1,2.3-2.3v-8.1c0-1.3-1.1-2.3-2.3-2.3h-5c-0.8,0-1.5-0.5-1.8-1.3
		c-0.2-0.5-0.4-0.9-0.6-1.4c-0.3-0.8-0.2-1.6,0.4-2.2l3.5-3.5c0.9-0.9,0.9-2.4,0-3.3l-5.8-5.8c-0.9-0.9-2.4-0.9-3.3,0l-3.6,3.6
		c-0.6,0.6-1.4,0.7-2.1,0.4c-0.5-0.2-1.1-0.4-1.5-0.6c-0.7-0.3-1.2-1-1.2-1.8v-5.1c0-1.3-1-2.3-2.3-2.3h-8.1c-1.3,0-2.3,1-2.3,2.3v5
		c0,0.8-0.5,1.5-1.3,1.8c-0.5,0.2-1,0.4-1.4,0.6c-0.8,0.3-1.6,0.2-2.2-0.4l-3.5-3.5c-0.9-0.9-2.4-0.9-3.3,0l-5.7,5.8
		c-0.9,0.9-0.9,2.4,0,3.3l3.6,3.6c0.6,0.6,0.7,1.4,0.4,2.1c-0.2,0.5-0.4,1.1-0.6,1.5c-0.3,0.7-1,1.2-1.8,1.2h-5.1
		c-1.3,0-2.3,1.1-2.3,2.3v8.1c0,1.3,1.1,2.3,2.3,2.3h5c0.8,0,1.5,0.5,1.8,1.3c0.2,0.5,0.4,0.9,0.6,1.4c0.3,0.8,0.2,1.6-0.4,2.2
		l-3.5,3.5c-0.9,0.9-0.9,2.4,0,3.3l5.8,5.7c0.9,0.9,2.4,0.9,3.3,0l3.6-3.6c0.6-0.6,1.4-0.7,2.1-0.4c0.5,0.2,1.1,0.4,1.5,0.6
		c0.7,0.3,1.2,1,1.2,1.8v5.1c0,1.3,1.1,2.3,2.3,2.3h8.1c1.3,0,2.3-1.1,2.3-2.3v-5c0-0.8,0.5-1.5,1.3-1.8c0.5-0.2,0.9-0.4,1.4-0.6
		c0.8-0.3,1.6-0.2,2.2,0.4l3.5,3.5c0.9,0.9,2.4,0.9,3.3,0l5.8-5.8c0.9-0.9,0.9-2.4,0-3.3l-3.6-3.6c-0.6-0.6-0.7-1.4-0.4-2.1
		C486.3,183.9,486.8,182.4,486.9,182.3z M454.4,173.9c1.4-7.2,8.8-11.3,15.5-8.7c5.1,2,8.2,7.5,7.2,12.8c-1.4,7.2-8.8,11.3-15.5,8.7
		C456.5,184.8,453.4,179.2,454.4,173.9z"/>
</g>
</svg>
