<?xml version="1.0" encoding="utf-8"?>
<!-- Generator: Adobe Illustrator 23.0.1, SVG Export Plug-In . SVG Version: 6.00 Build 0)  -->
<svg version="1.1" id="Layer_1" xmlns="http://www.w3.org/2000/svg" xmlns:xlink="http://www.w3.org/1999/xlink" x="0px" y="0px"
	 viewBox="0 0 963.78 664.45" style="enable-background:new 0 0 963.78 664.45;" xml:space="preserve">
<style type="text/css">
	.st0{fill:#C7DCEF;}
	.st1{fill:#263866;}
	.st2{fill:#485C94;}
	.st3{fill:#74A8D6;}
	.st4{fill:#F2B81B;}
	.st5{fill:#182740;}
	.st6{fill:#091934;}
	.st7{fill:#FAE3A4;}
	.st8{fill:#FFFFFF;}
	.st9{fill:#334A88;}
	.st10{fill:#F9F7F3;}
	.st11{fill:#E3EEF7;}
	.st12{fill:#F7D476;}
	.st13{fill:#E1D7C5;}
	.st14{fill:#F3EFE8;}
	.st15{opacity:0.3;fill:#334A88;}
	.st16{fill:#B38A2E;}
</style>
<g>
	<path class="st0" d="M889.21,0H704.02H465.97H299.99H0c4.06,17.97,10.9,35.31,20.43,51.05c2.12,3.5,4.36,6.91,6.73,10.24
		c13.95,19.63,32.09,36.26,52.82,48.46c26.08,15.34,55.36,25.82,80.17,43.36c39.85,28.18,71.18,71.17,89.45,116.28
		c39.5,97.53-3.47,219.25,53.12,307.89c31.07,48.67,87.62,76.7,144.67,84.47s115.02-2.43,170.89-16.4
		c47.19-11.8,93.67-26.31,139.84-41.65c44.71-14.86,89.85-30.65,136.87-33.31c22.96-1.3,45.92,0.59,68.79,3.36V0H889.21z"/>
</g>
<g>
	<rect x="774.78" y="146" class="st1" width="189" height="336"/>
	<rect x="787.78" y="161" class="st2" width="175" height="301"/>
	<rect x="787.78" y="334" class="st1" width="175" height="9"/>
	<rect x="787.78" y="316" class="st1" width="175" height="9"/>
	<rect x="787.78" y="297" class="st1" width="175" height="9"/>
	<rect x="787.78" y="278" class="st1" width="175" height="9"/>
	<rect x="787.78" y="260" class="st1" width="175" height="9"/>
	<rect x="787.78" y="241" class="st1" width="175" height="9"/>
	<rect x="787.78" y="223" class="st1" width="175" height="9"/>
	<rect x="787.78" y="204" class="st1" width="175" height="9"/>
	<rect x="787.78" y="185" class="st1" width="175" height="9"/>
	<rect x="787.78" y="167" class="st1" width="175" height="9"/>
	<rect x="787.78" y="342" class="st3" width="175" height="1"/>
	<rect x="787.78" y="324" class="st3" width="175" height="1"/>
	<rect x="787.78" y="305" class="st3" width="175" height="1"/>
	<rect x="787.78" y="287" class="st3" width="175" height="1"/>
	<rect x="787.78" y="268" class="st3" width="175" height="1"/>
	<rect x="787.78" y="249" class="st3" width="175" height="1"/>
	<rect x="787.78" y="231" class="st3" width="175" height="1"/>
	<rect x="787.78" y="212" class="st3" width="175" height="1"/>
	<rect x="787.78" y="193" class="st3" width="175" height="1"/>
	<rect x="787.78" y="175" class="st3" width="175" height="1"/>
	<rect x="757.78" y="462" class="st1" width="205" height="27"/>
	<rect x="757.78" y="462" class="st3" width="205" height="2"/>
	<polygon class="st1" points="787.78,436 787.78,462 962.78,462 962.78,389 953.78,389 953.78,409 940.78,409 940.78,377 
		936.78,377 936.78,360.7 931.78,366.44 931.78,405 927.78,405 927.69,383 909.78,383 909.78,392 906.78,392 906.78,376.36 
		903.38,370.75 899.78,376.97 899.78,389 877.78,388.61 877.78,377 868.78,377 868.78,419.21 846.78,419.62 846.99,393 834.78,393 
		834.78,404 826.78,404 826.78,393 823.78,393 823.78,384 821.78,384 821.78,392 818.78,392 818.78,428 811.78,428 811.61,413.28 
		802.78,422.57 802.78,441 796.78,441 796.78,436 	"/>
</g>
<g id="XMLID_210_">
	<path id="XMLID_216_" class="st4" d="M849.08,284.77c0,0,0.7,0.09,1.97,0.42c0.61,0.21,1.36,0.48,2.25,0.79
		c0.83,0.4,1.78,0.86,2.84,1.38c0.96,0.63,2.03,1.32,3.2,2.08c1.1,0.81,2.14,1.8,3.34,2.8c2.15,2.14,4.59,4.63,6.5,7.64
		c2.24,2.91,3.84,6.33,5.77,9.9c1.51,3.66,3.27,7.52,4.49,11.62c1.12,4.11,2.65,8.33,3.35,12.7c0.82,4.36,1.93,8.79,2.33,13.26
		c0.48,4.46,1.25,8.93,1.47,13.33c0.24,4.41,0.49,8.74,0.72,12.94c0.25,4.2,0.05,8.25,0.1,12.1c-0.02,3.85-0.04,7.49-0.06,10.85
		c-0.73,13.42-1.21,22.36-1.21,22.36l-11.53-0.83c0,0,1.19-8.78,2.99-21.95c0.29-3.3,0.6-6.87,0.93-10.66
		c0.26-3.78,0.79-7.78,0.88-11.91c0.11-4.13,0.22-8.41,0.33-12.75c0.14-4.35-0.27-8.73-0.38-13.15c-0.03-4.42-0.76-8.78-1.22-13.11
		c-0.33-4.35-1.49-8.5-2.26-12.59c-0.87-4.07-2.28-7.9-3.46-11.57c-1.59-3.55-2.88-7.01-4.83-9.93c-1.63-3.05-3.8-5.57-5.73-7.77
		c-1.09-1.03-2.03-2.05-3.04-2.9c-1.08-0.8-2.07-1.53-2.97-2.19c-1-0.56-1.9-1.06-2.68-1.5c-0.85-0.35-1.57-0.65-2.16-0.89
		C849.77,284.9,849.08,284.77,849.08,284.77z"/>
	<path id="XMLID_215_" class="st4" d="M875.62,405.95c0,0-1.15-5.36-3.25-13.45c-2.09-8.07-5.13-18.81-8.82-29.4
		c-1.85-5.3-3.9-10.55-6.01-15.42c-1.15-2.4-2.15-4.77-3.3-6.95c-1.21-2.14-2.19-4.26-3.4-6.07c-1.24-1.8-2.18-3.57-3.38-4.94
		c-1.19-1.37-2.13-2.65-3.1-3.58c-2.11-1.75-3.32-2.75-3.32-2.75s1.34,0.91,3.69,2.5c1.1,0.86,2.21,2.06,3.61,3.36
		c1.42,1.3,2.57,2.99,4.09,4.73c1.48,1.75,2.73,3.79,4.26,5.87c1.45,2.11,2.77,4.41,4.26,6.76c2.78,4.75,5.54,9.88,8.11,15.07
		c10.27,20.77,17.87,42.29,17.87,42.29L875.62,405.95z"/>
	<path id="XMLID_214_" class="st4" d="M879.59,409.85c0,0,0.5-3.95,1.71-9.57c1.21-5.67,3.14-13.19,6-20.53
		c1.47-3.67,3.14-7.29,5.09-10.57c1.09-1.61,1.88-3.22,3.12-4.61c1.15-1.41,2.12-2.76,3.43-3.83c1.18-1.12,2.26-2.13,3.54-2.81
		c1.21-0.7,2.1-1.45,3.18-1.69c1.94-0.65,3.04-1.02,3.04-1.02s-0.98,0.52-2.7,1.43c-0.93,0.35-1.62,1.23-2.57,2.03
		c-1.01,0.77-1.78,1.87-2.6,3.06c-0.94,1.12-1.54,2.54-2.27,3.98c-0.81,1.39-1.19,3.07-1.82,4.67c-1.05,3.3-1.77,6.9-2.3,10.51
		c-0.98,7.26-1.05,14.59-0.87,20.05c0.18,5.53,0.6,9.03,0.6,9.03L879.59,409.85z"/>
	<path id="XMLID_213_" class="st5" d="M847.46,401l9.1,55.5c0.8,4.9,5.04,8.5,10.01,8.5h30.64c4.97,0,9.21-3.6,10.01-8.5l9.1-55.5
		H847.46z"/>
	<polygon id="XMLID_212_" class="st6" points="847.72,402 916.07,402 908.86,445.96 849.64,413.68 	"/>
	<path id="XMLID_211_" class="st5" d="M924.47,403h-84.39c-0.17,0-0.31-0.14-0.31-0.31v-15.39c0-0.17,0.14-0.31,0.31-0.31h84.39
		c0.17,0,0.31,0.14,0.31,0.31v15.39C924.78,402.86,924.64,403,924.47,403z"/>
</g>
<g>
	<path id="XMLID_90_" class="st4" d="M662.81,489.05c0,7.06-5.72,12.78-12.78,12.78c-7.06,0-12.78-5.72-12.78-12.78
		s5.72-12.78,12.78-12.78C657.09,476.28,662.81,482,662.81,489.05z"/>
	<path class="st7" d="M650.03,476.28c-3.78,0-7.17,1.65-9.5,4.26c2.26-2.03,5.24-3.27,8.52-3.27c7.06,0,12.78,5.72,12.78,12.78
		c0,3.28-1.24,6.26-3.27,8.52c2.61-2.34,4.26-5.73,4.26-9.5C662.81,482,657.09,476.28,650.03,476.28z"/>
	<g id="XMLID_88_">
		<polygon id="XMLID_89_" class="st8" points="648.34,494.23 643.9,489.79 646.44,487.26 648.34,489.16 653.62,483.88 
			656.16,486.41 		"/>
	</g>
</g>
<g>
	<circle id="XMLID_86_" class="st9" cx="410.29" cy="342.53" r="17.96"/>
	<path class="st3" d="M410.29,324.57c-5.31,0-10.07,2.32-13.36,5.99c3.18-2.85,7.37-4.6,11.98-4.6c9.92,0,17.96,8.04,17.96,17.96
		c0,4.61-1.75,8.8-4.6,11.98c3.67-3.29,5.99-8.05,5.99-13.36C428.25,332.61,420.21,324.57,410.29,324.57z"/>
	<g>
		<path class="st8" d="M400.78,343.56v0.05l5,1.64v2.22l-7-2.85v-2.11l7-2.85v2.21L400.78,343.56z"/>
		<path class="st8" d="M409.55,349h-2.8l4.09-13h2.8L409.55,349z"/>
		<path class="st8" d="M419.78,343.59v-0.05l-5-1.66v-2.22l7,2.87v2.12l-7,2.87v-2.22L419.78,343.59z"/>
	</g>
</g>
<g>
	<path class="st10" d="M386.32,231H269.24c-1.91,0-3.46-1.55-3.46-3.46v-66.07c0-1.91,1.55-3.46,3.46-3.46h117.07
		c1.91,0,3.46,1.55,3.46,3.46v66.07C389.78,229.45,388.23,231,386.32,231z"/>
	<g>
		<path id="XMLID_288_" class="st9" d="M318.15,194.13c0,11.04-8.95,19.99-19.99,19.99c-11.04,0-19.99-8.95-19.99-19.99
			c0-11.04,8.95-19.99,19.99-19.99C309.2,174.14,318.15,183.09,318.15,194.13z"/>
		<path id="XMLID_287_" class="st8" d="M305.6,195.26l-12.86,7.43c-0.87,0.5-1.95-0.13-1.95-1.13V186.7c0-1,1.08-1.63,1.95-1.13
			L305.6,193C306.46,193.5,306.46,194.75,305.6,195.26z"/>
	</g>
	<rect x="325.78" y="178" class="st11" width="55" height="5"/>
	<rect x="325.78" y="192" class="st11" width="55" height="5"/>
	<rect x="325.78" y="205" class="st11" width="27" height="5"/>
</g>
<g>
	<path id="XMLID_57_" class="st4" d="M471.81,146.91c0,8.63-7,15.63-15.63,15.63s-15.63-7-15.63-15.63c0-8.63,7-15.63,15.63-15.63
		S471.81,138.28,471.81,146.91z"/>
	<path class="st12" d="M456.17,131.28c-4.62,0-8.77,2.02-11.63,5.21c2.77-2.48,6.41-4,10.42-4c8.63,0,15.63,7,15.63,15.63
		c0,4.01-1.52,7.66-4.01,10.42c3.19-2.86,5.21-7,5.21-11.63C471.81,138.28,464.81,131.28,456.17,131.28z"/>
	<g>
		<path id="XMLID_54_" class="st8" d="M462.33,149l1.75,0c0.38,0,0.69-0.31,0.69-0.7l0-2.61c0-0.38-0.31-0.7-0.7-0.69l-1.5,0
			c-0.25,0-0.46-0.17-0.55-0.41c-0.05-0.15-0.11-0.29-0.17-0.43c-0.1-0.23-0.07-0.51,0.11-0.69l1.09-1.14
			c0.26-0.27,0.26-0.69,0-0.96l-1.75-1.82c-0.27-0.28-0.73-0.28-1,0l-1.06,1.1c-0.17,0.17-0.42,0.22-0.64,0.13
			c-0.15-0.07-0.32-0.14-0.46-0.19c-0.22-0.09-0.37-0.31-0.37-0.56v-1.33c0-0.38-0.31-0.7-0.7-0.7h-2.61c-0.38,0-0.7,0.31-0.7,0.7
			v1.5c0,0.25-0.17,0.46-0.41,0.55c-0.15,0.05-0.3,0.12-0.45,0.18c-0.23,0.1-0.51,0.07-0.69-0.11l-1.14-1.09
			c-0.27-0.26-0.69-0.26-0.96,0l-1.82,1.75c-0.28,0.27-0.28,0.73,0,1l1.11,1.05c0.18,0.17,0.23,0.42,0.13,0.64
			c-0.07,0.15-0.14,0.32-0.19,0.46c-0.09,0.22-0.31,0.37-0.56,0.37h-0.77c0,0-0.69,0.34-0.24,0.72v2.42
			c-0.45,0.38-0.13,0.69,0.25,0.86h1.48c0.25-0.17,0.46-0.01,0.54,0.22c0.05,0.14,0.11,0.27,0.17,0.41c0.1,0.22,0.07,0.49-0.11,0.66
			l-1.05,1.05c-0.27,0.27-0.27,0.71,0,0.98l1.71,1.71c0.27,0.27,0.71,0.27,0.98,0l1.06-1.06c0.17-0.17,0.42-0.21,0.63-0.12
			c0.15,0.06,0.31,0.13,0.45,0.18c0.22,0.09-0.14,0.53-0.14,0.53l0,1.74c0,0.38,0.31,0.69,0.7,0.69l2.61,0
			c0.38,0,0.69-0.31,0.69-0.7l0-1.5c0-0.25,0.17-0.46,0.41-0.55c0.15-0.05,0.29-0.11,0.43-0.17c0.23-0.1,0.51-0.07,0.69,0.11
			l1.14,1.09c0.27,0.26,0.69,0.26,0.96,0l1.82-1.75c0.28-0.27,0.28-0.73,0-1l-1.1-1.06c-0.17-0.17-0.23-0.42-0.13-0.64
			C462.16,149.46,462.32,149.03,462.33,149z M452.8,146.29c0.4-2.14,2.62-3.35,4.61-2.58c1.51,0.58,2.43,2.22,2.13,3.81
			c-0.4,2.14-2.62,3.35-4.61,2.58C453.42,149.52,452.5,147.89,452.8,146.29z"/>
	</g>
</g>
<g>
	<circle id="XMLID_53_" class="st4" cx="727.39" cy="242.41" r="14.92"/>
	<path class="st7" d="M727.39,227.49c-4.41,0-8.37,1.93-11.1,4.97c2.64-2.37,6.12-3.82,9.95-3.82c8.24,0,14.92,6.68,14.92,14.92
		c0,3.83-1.45,7.31-3.82,9.95c3.05-2.73,4.97-6.68,4.97-11.1C742.31,234.17,735.63,227.49,727.39,227.49z"/>
	<g id="XMLID_47_">
		<path id="XMLID_52_" class="st8" d="M732.1,249.85l-4.48-2.28c-0.09-0.04-0.19-0.04-0.28,0l-4.41,2.39
			c-0.22,0.12-0.47-0.06-0.44-0.31l0.78-4.96c0.02-0.1-0.02-0.19-0.09-0.26l-3.64-3.46c-0.18-0.17-0.09-0.47,0.16-0.51l4.96-0.79
			c0.1-0.02,0.18-0.08,0.22-0.17l2.16-4.53c0.11-0.22,0.42-0.23,0.53-0.01l2.28,4.47c0.04,0.09,0.13,0.15,0.23,0.16l4.98,0.66
			c0.24,0.03,0.35,0.33,0.17,0.51l-3.55,3.55c-0.07,0.07-0.1,0.17-0.08,0.26l0.91,4.94C732.57,249.78,732.32,249.97,732.1,249.85z"
			/>
	</g>
</g>
<g>
	<circle id="XMLID_46_" class="st13" cx="365.33" cy="585.92" r="17.96"/>
	<path class="st14" d="M365.33,567.96c-5.31,0-10.07,2.32-13.36,5.99c3.18-2.85,7.37-4.6,11.98-4.6c9.92,0,17.96,8.04,17.96,17.96
		c0,4.61-1.75,8.8-4.6,11.98c3.67-3.29,5.99-8.05,5.99-13.36C383.29,576,375.25,567.96,365.33,567.96z"/>
	<path class="st9" d="M374.25,581H356.4c-1.1,0-2-0.9-2-2l0,0c0-1.1,0.9-2,2-2h17.85c1.1,0,2,0.9,2,2l0,0
		C376.25,580.1,375.35,581,374.25,581z"/>
	<path class="st9" d="M374.25,588H356.4c-1.1,0-2-0.9-2-2l0,0c0-1.1,0.9-2,2-2h17.85c1.1,0,2,0.9,2,2l0,0
		C376.25,587.1,375.35,588,374.25,588z"/>
	<path class="st9" d="M374.25,596H356.4c-1.1,0-2-0.9-2-2l0,0c0-1.1,0.9-2,2-2h17.85c1.1,0,2,0.9,2,2l0,0
		C376.25,595.1,375.35,596,374.25,596z"/>
</g>
<g>
	<path id="XMLID_42_" class="st9" d="M575.09,147.89c0,7.65-6.2,13.86-13.86,13.86c-7.65,0-13.86-6.2-13.86-13.86
		c0-7.65,6.2-13.86,13.86-13.86C568.89,134.03,575.09,140.23,575.09,147.89z"/>
	<path class="st3" d="M561.24,134.03c-4.1,0-7.77,1.79-10.31,4.62c2.45-2.2,5.68-3.55,9.24-3.55c7.65,0,13.86,6.2,13.86,13.86
		c0,3.55-1.35,6.79-3.55,9.24c2.83-2.54,4.62-6.21,4.62-10.31C575.09,140.23,568.89,134.03,561.24,134.03z"/>
	<path class="st8" d="M567.93,144h-13.38c-0.83,0-1.5-0.67-1.5-1.5l0,0c0-0.83,0.67-1.5,1.5-1.5h13.38c0.83,0,1.5,0.67,1.5,1.5l0,0
		C569.43,143.33,568.76,144,567.93,144z"/>
	<path class="st8" d="M567.93,150h-13.38c-0.83,0-1.5-0.67-1.5-1.5l0,0c0-0.83,0.67-1.5,1.5-1.5h13.38c0.83,0,1.5,0.67,1.5,1.5l0,0
		C569.43,149.33,568.76,150,567.93,150z"/>
	<path class="st8" d="M567.93,155h-13.38c-0.83,0-1.5-0.67-1.5-1.5l0,0c0-0.83,0.67-1.5,1.5-1.5h13.38c0.83,0,1.5,0.67,1.5,1.5l0,0
		C569.43,154.33,568.76,155,567.93,155z"/>
</g>
<g>
	<circle id="XMLID_33_" class="st13" cx="715.15" cy="319.43" r="17.96"/>
	<path class="st14" d="M715.15,301.46c-5.31,0-10.07,2.32-13.36,5.99c3.18-2.85,7.37-4.6,11.98-4.6c9.92,0,17.96,8.04,17.96,17.96
		c0,4.61-1.75,8.8-4.6,11.98c3.67-3.29,5.99-8.05,5.99-13.36C733.11,309.51,725.07,301.46,715.15,301.46z"/>
	<path id="XMLID_30_" class="st9" d="M722.6,320.55l-12.86,7.43c-0.87,0.5-1.95-0.13-1.95-1.13V312c0-1,1.08-1.63,1.95-1.13
		l12.86,7.43C723.46,318.8,723.46,320.05,722.6,320.55z"/>
</g>
<path class="st15" d="M339.78,194.6V231h40.4c5.3,0,9.6-4.3,9.6-9.6V185h-40.4C344.08,185,339.78,189.3,339.78,194.6z"/>
<g>
	<path class="st10" d="M481.32,272H347.24c-1.91,0-3.46-1.55-3.46-3.46v-76.07c0-1.91,1.55-3.46,3.46-3.46h134.07
		c1.91,0,3.46,1.55,3.46,3.46v76.07C484.78,270.45,483.23,272,481.32,272z"/>
	<rect x="356.78" y="198" class="st11" width="57" height="5"/>
	<rect x="357.78" y="209" class="st11" width="28" height="5"/>
	<path class="st4" d="M351.04,260c4.63-6.28,9.62-14.35,14.93-20.08c1.87-2.02,3.99-4.11,6.71-4.52c3.84-0.58,7.23,2.35,10.06,5
		c3.39,3.17,7.11,6.38,11.68,7.23c5.62,1.05,11.19-1.7,16.21-4.44c4.37-2.4,8.81-4.95,11.92-8.85c2.99-3.75,4.67-8.65,8.53-11.5
		c0.68-0.5,1.44-0.94,2.28-1.04c1.46-0.17,2.84,0.7,3.86,1.75c2.67,2.75,3.63,6.67,5.01,10.24c1.38,3.57,3.72,7.28,7.45,8.13
		c4.87,1.1,9.27-3.18,11.74-7.51c2.65-4.62,4.67-10.1,9.64-12.37c0.77-0.35,1.63-0.51,2.45-0.34c2.34,0.49,2.74,2.88,2.92,4.91
		c0.64,7.03,1.29,14.05,1.93,21.08c0.27,2.92,0.47,9.92-1.23,12.31H351.04z"/>
</g>
<g>
	<g>
		<path class="st10" d="M670.77,292h-89.98c-1.66,0-3.01-1.35-3.01-3.01v-77.98c0-1.66,1.35-3.01,3.01-3.01h89.98
			c1.66,0,3.01,1.35,3.01,3.01v77.98C673.78,290.65,672.43,292,670.77,292z"/>
		<path class="st9" d="M667.21,208h-82.86c-3.63,0-6.57,2.94-6.57,6.57V225h96v-10.43C673.78,210.94,670.84,208,667.21,208z"/>
		<circle class="st8" cx="588.76" cy="216.59" r="1.47"/>
		<circle class="st8" cx="595.14" cy="216.59" r="1.47"/>
		<circle class="st8" cx="595.14" cy="216.59" r="1.47"/>
		<path class="st8" d="M603,216.59c0,0.81-0.66,1.47-1.47,1.47c-0.81,0-1.47-0.66-1.47-1.47s0.66-1.47,1.47-1.47
			C602.34,215.12,603,215.78,603,216.59z"/>
		<path class="st12" d="M605.72,240.21c7.77,11.74-4.84,24.34-16.57,16.57c-0.64-0.42-1.21-0.99-1.63-1.63
			c-7.77-11.74,4.84-24.35,16.57-16.57C604.73,239,605.29,239.57,605.72,240.21z"/>
		<rect x="613.78" y="242" class="st11" width="53" height="3"/>
		<rect x="613.78" y="251" class="st11" width="53" height="3"/>
		<rect x="613.78" y="260" class="st11" width="20" height="3"/>
	</g>
</g>
<g>
	<path class="st9" d="M729.99,178h-90.41c-0.99,0-1.79-0.8-1.79-1.79v-22.41c0-0.99,0.8-1.79,1.79-1.79h90.41
		c0.99,0,1.79,0.8,1.79,1.79v22.41C731.78,177.2,730.98,178,729.99,178z"/>
	<g>
		<path class="st4" d="M700.46,166h-57.38c-0.7,0.13-1.26-0.43-1.26-1.13c0-0.7,0.56-1.26,1.26-1.87h57.38
			c0.7,0.61,1.26,1.17,1.26,1.87C701.72,165.57,701.15,166.13,700.46,166z"/>
	</g>
	<rect x="704.78" y="152" class="st8" width="3" height="26"/>
	<path class="st8" d="M725.61,164.87c0,3.18-2.58,5.75-5.75,5.75s-5.75-2.58-5.75-5.75c0-3.18,2.58-5.75,5.75-5.75
		S725.61,161.69,725.61,164.87z"/>
</g>
<g>
	<circle id="XMLID_29_" class="st9" cx="764.26" cy="543.5" r="17.96"/>
	<path class="st3" d="M764.26,525.54c-5.31,0-10.07,2.32-13.36,5.99c3.18-2.85,7.37-4.6,11.98-4.6c9.92,0,17.96,8.04,17.96,17.96
		c0,4.61-1.75,8.8-4.6,11.98c3.67-3.29,5.99-8.05,5.99-13.36C782.22,533.58,774.18,525.54,764.26,525.54z"/>
	<path class="st8" d="M770.78,541.56v-2.81c0-2.78-1.73-5.35-4.38-6.2c-4.48-1.44-8.62,1.89-8.62,6.16v2.84
		c-1.57,2.04-2.22,4.82-1.27,7.74c0.8,2.46,2.82,4.4,5.31,5.13c5.59,1.63,10.68-2.52,10.68-7.86
		C772.5,544.68,771.85,542.94,770.78,541.56z M765.68,549h-2.84l0.28-2.58c-0.33-0.31-0.54-0.74-0.54-1.22
		c0-0.93,0.75-1.68,1.68-1.68c0.93,0,1.68,0.75,1.68,1.68c0,0.48-0.21,0.92-0.54,1.22L765.68,549z M768.78,539.88
		c-1.3-0.83-2.84-1.32-4.5-1.32s-3.2,0.49-4.5,1.32v-0.97c0-1.72,0.95-3.37,2.53-4.06c3.29-1.42,6.47,0.96,6.47,4.08V539.88z"/>
</g>
<g>
	<path id="XMLID_3_" class="st4" d="M446.65,525.67c0,9.95-8.06,18.01-18.01,18.01s-18.01-8.06-18.01-18.01
		c0-9.95,8.06-18.01,18.01-18.01S446.65,515.72,446.65,525.67z"/>
	<path class="st12" d="M428.64,507.65c-5.33,0-10.1,2.33-13.4,6c3.19-2.86,7.39-4.61,12.01-4.61c9.95,0,18.01,8.06,18.01,18.01
		c0,4.62-1.75,8.82-4.61,12.01c3.68-3.3,6-8.07,6-13.4C446.65,515.72,438.59,507.65,428.64,507.65z"/>
	<path id="XMLID_871_" class="st9" d="M437.65,523.25c0-2.91-2.35-5.26-5.26-5.26c-1.47,0-2.8,0.61-3.75,1.58
		c-0.95-0.98-2.28-1.58-3.75-1.58c-2.91,0-5.26,2.35-5.26,5.26c0,1.42,0.56,2.7,1.47,3.64l7.52,7.48l7.71-7.64
		c0.08-0.1,0.3-0.37,0.3-0.37C437.27,525.48,437.65,524.41,437.65,523.25z"/>
</g>
<g>
	<g id="XMLID_162_">
		<path class="st6" d="M661.47,333.79c-3-3.53-6.48-6.65-9.4-10.25c-4.59-5.67-7.7-12.48-8.94-19.62
			c-2.32-13.32,1.78-27.15-1.5-40.33c-3.31-13.29-14.77-15.38-20.45-26.24c-2.63-5.03-3.77-10.66-5.42-16.08
			c-2.61-8.59-6.7-16.98-13.4-23.08c-16.51-15.04-49.07-15.23-68.65-7.02c-21.1,8.86-36.75,27.01-48.04,46.07
			c-8.55,14.45-6.13,31.91-17.09,45.61c-5.32,6.66-12.8,11.71-16.81,19.2c-4.75,8.88-3.78,19.5-3.57,29.52
			c0.2,9.58-0.91,19.03-7.21,26.7c-7.46,9.08-18.67,15.3-15.73,28.87c1.93,8.91,9.17,16.08,17.57,19.99
			c8.4,3.91,17.87,4.98,27.17,5.28c22.01,0.7,45.35-3.2,62.12-17.17c4.99-4.16,9.91-10.06,16.62-11.48
			c5.93-1.26,7.47,1.42,12.51,3.18c12,4.2,29.19,3.21,40.64-2.06c6.99-3.22,13.41-8.58,21.13-8.74c10.09-0.21,15.89,8.45,26.11,7.49
			c8.09-0.76,16.01-5.98,19.46-13.23C674.26,358.5,670.03,343.87,661.47,333.79z"/>
	</g>
	<g>
		<polygon id="XMLID_158_" class="st4" points="582.86,335.75 657,363.8 717.35,422.88 683.78,461.12 643.4,437.32 564.78,363.8 
			564.78,339.58 		"/>
		<polygon id="XMLID_157_" class="st4" points="531.7,335.75 457.56,363.8 397.21,422.88 430.78,461.12 471.16,437.32 549.78,363.8 
			549.78,339.58 		"/>
		<path id="XMLID_151_" class="st4" d="M657.57,364.05l-23.08,118.91c-4.9,25.23-1.91,51.35,8.55,74.83l21.86,74.98
			c-94.24,21.11-138.57,35.43-197.84,30.81l7.33-132.66c0.11-1.31-1.12-10.7-1.26-12.01L457.4,364.05L531.54,336h51.88
			L657.57,364.05z"/>
		<g id="XMLID_147_">
			<path id="XMLID_148_" class="st16" d="M477.05,651.03l7.04-120.36c0.11-1.31-1.12-10.7-1.26-12.01L475.77,460
				c-0.86-7.13-4.74-13.55-10.67-17.61l0,0l8.03,76.26c0.13,1.31,1.37,10.7,1.26,12.01l-7.33,132.97c23.07,1.29,35.38,1.67,46.4-1.2
				C500.17,661.8,485.29,660.04,477.05,651.03z"/>
		</g>
		<g id="XMLID_144_">
			<path id="XMLID_146_" class="st16" d="M619.95,482.71c-4.9,25.23-1.91,51.35,8.55,74.83l23.65,79.11
				c7.11-1.59,4.5-1.81,12.76-3.83l-21.86-75.29c-10.46-23.47-13.44-49.6-8.55-74.83l10.71-45.05l0,0
				c-10.48,2.35-18.58,10.69-20.63,21.24L619.95,482.71z"/>
			<path id="XMLID_145_" class="st16" d="M500.17,663.47c32.22,2.59,107.37-14.43,154.64-27.52
				C611.08,632.99,534.6,657.06,500.17,663.47z"/>
		</g>
		<path id="XMLID_15_" class="st14" d="M576.32,382h-39.07c-3.57,0-6.46-2.89-6.46-6.46V310h52v65.54
			C582.78,379.11,579.89,382,576.32,382z"/>
		<path id="XMLID_2_" class="st9" d="M576.32,382h-39.07c-3.57,0-6.46-2.89-6.46-6.46V310h52v65.54
			C582.78,379.11,579.89,382,576.32,382z"/>
		<path class="st1" d="M548.99,355.35c7.95-10.94,0-45.35,0-45.35h-18.21v44.73c0,12.11,8.01,23.01,19.76,25.97
			c5.55,1.4,10.82,0.88,15.5-0.86C556.09,376.14,542.39,364.44,548.99,355.35z"/>
		<path id="XMLID_94_" class="st9" d="M597.93,290.5c0,18.57-9.11,35.01-25.62,43.5h-0.38c0,0-6.23,1.7-9.44,1h-10.72
			c-3.2,0.7-6.39,0.19-9.44-0.8l0,0c-27-12.3-26.55-44-26.55-44V231.6c0-16.9,13.7-30.6,30.6-30.6h22.18
			c16.92,0,30.64,13.72,30.64,30.64L597.93,290.5z"/>
		<path class="st1" d="M558.72,334.51c-16.45-8.46-30.55-21.76-30.55-40.26l-2.52-15.64l14.95-34.32c7.75-17.07,5-42.29,21.87-42.29
			h-16.08c-16.9,0-30.6,13.7-30.6,30.6v58.01c0,18.5,10.34,35.44,26.79,43.9c3.04,0.99,6.22,1.49,9.42,1.49h10.7
			c0.91,0,1.82-0.13,2.72-0.21C563.14,335.58,560.89,335.22,558.72,334.51z"/>
		<g id="XMLID_87_">
			<path class="st6" d="M505.69,225.4c0.04,0.3,0.09,0.6,0.15,0.9c1.05,5,4.05,9.46,4.82,14.51c0.99,6.43-9.63,27.25-4.94,31.38
				c5.81,5.11,22.09-15.17,25.41-20.04c6.86-10.08,10.18-23.41,5.46-34.65c8.87-0.73,15.74,7.1,21.85,13.57
				c12.22,12.96,27.42,23.1,44.08,29.4c1.47,0.56,3.22,1.06,4.54,0.19c21.34-14.07-7.03-57.78-21.78-65.05
				c-9.18-4.53-19.55-6.25-29.79-6.26c-6.1-0.01-12.33,0.59-17.94,3c-2.97,1.27-5.71,3.03-8.4,4.82
				C521.16,202.49,504.27,213.94,505.69,225.4z"/>
		</g>
		<path id="XMLID_84_" class="st9" d="M687.12,457.55l20.74,20.83l-36.26,85l-29.96-12.57l-25.71,3.19
			c-1.16,1.31,0.55,6.63,1.79,7.87c2.7,2.7,13.51-0.86,13.51-0.86h14.02l-29.32,19.12c-0.84,1.54-1.48,6.07,0,7.01l8.36-5.48
			l25.92-9.85l1.01,1.26c0,0-23.07,10.97-24.44,18.54c-0.24,1.35,3.88,3.2,5.21,3.53l25.64-11.78l0.55,1.53l-20.56,17.55
			c0,0,3.32,0.9,4.43,0.89c5.44-0.03,19.15-8.54,19.15-8.54l16.21-5.9c7.66-2.78,13.61-9.42,17.81-16.4l54.01-81.69l7.07-17.59
			c2.45-4.06,1.66-7.63-1.77-10.9l-1.93-2.51c-7.78-10.11-16.66-19.33-26.48-27.48l-9.75-8.09L687.12,457.55z"/>
		<g id="XMLID_11_">
			<path id="XMLID_41_" class="st1" d="M687.19,560.33l3.3-2.25c5.88-4.01,10.64-9.45,13.83-15.81l31.57-62.78
				c1.26-2.49,0.79-5.51-1.16-7.51L710.42,447l-7.71,7.5l20.74,20.83L687.19,560.33z"/>
		</g>
		<path id="XMLID_43_" class="st9" d="M317.78,291.98c-0.53,4.68-0.35,9.39,0.36,14.02l6.58,29.69l2.06,19.86V503.4
			c-0.4,10.39,8.59,18.44,18.93,17.43l8.31-0.81c5.8-0.57,11.28-2.96,15.64-6.83l60.82-52.12l-32.62-37.16l-26.91,26.5l-8.45-111.76
			l13.34-20l15.04-32.15c0,0-6.22-1.66-8.31-0.91c-4.66,1.66-10.32,14.41-10.32,14.41h-2.84l2.82-26.29c0,0,3.09-20.55,1.33-27.06
			c-0.44-1.64-6.3-1.63-6.78,0c-1.22,4.17-10,48.23-10,48.23l0.11-55.57c-1.47-1.48-6.8-1.41-8.33,0l-4.44,54.46l-5.33-46.04
			c-1.06-2.75-5.56-2.59-7.23,0.25l-1.22,45.79l-4.89-30.73c-1.54-4.76-6.63-4.33-7.67,0V291.98z"/>
		<g>
			<path class="st1" d="M421.49,450.72c-26.12,15.5-63.83,62.53-63.83,62.53c-4.36,3.87-9.84,6.27-15.64,6.83l-2.4,0.23
				c1.98,0.52,4.06,0.79,6.23,0.58l8.31-0.81c5.8-0.57,11.28-2.96,15.64-6.83l60.82-52.12L421.49,450.72z"/>
		</g>
		<g>
			<polygon class="st6" points="515.64,268.55 510.78,266.85 510.78,262.9 516.78,265.28 			"/>
		</g>
		<g>
			<polygon class="st6" points="599.74,268.51 598.4,265.32 603.78,263.1 603.78,266.81 			"/>
		</g>
	</g>
	<g>
		<path d="M595.35,274.98l0.03-0.21c0.19-1.24,0.48-3.2,0.72-5.77h1.46c1.23,0.91,2.31,0.04,2.57-1.16l0.41-1.9
			c0.11-0.52,0.48-0.91,0.95-1.16c0.91-0.49,1.46-1.47,1.38-2.5l-0.07-1.03c-0.07-0.91-0.7-1.68-1.58-1.89
			c-12.35-3.05-25.23-2.69-37.25,1.06c-0.76,0.24-1.29,0.87-1.42,1.62c-2.44-0.53-4.99-0.54-7.43-0.02
			c-0.13-0.75-0.66-1.39-1.42-1.63c-12-3.8-24.89-4.23-37.25-1.23c-0.88,0.21-1.52,0.98-1.59,1.88l-0.08,1.03
			c-0.08,1.07,0.53,2.01,1.45,2.56c0.45,0.27,0.77,0.71,0.88,1.23l0.38,1.79c0.11,0.5,0.36,0.95,0.71,1.3
			c0.48,0.48,1.14,0.78,1.85,1.05h1.46c0.23,1.4,0.52,3.36,0.7,4.6l0.03,0.21c0.39,2.68,1.65,5.06,3.46,6.89
			c2.33,2.35,5.6,3.77,9.13,3.72c1.03-0.01,3.12,0,4.28,0.01c4.5,0.05,8.59-2.16,10.95-6.11c1.21-2.02,1.72-4.37,1.68-6.72
			l-0.03-1.64c-0.02-0.91-0.03-1.86-0.05-2.57c1.4-0.1,2.6-1.07,2.98-2.41c2.73-0.62,5.59-0.61,8.31,0.02
			c0.16,0.56,0.45,1.05,0.85,1.45c0.56,0.56,1.31,0.9,2.13,0.97c-0.02,0.73-0.04,1.71-0.06,2.64l-0.04,1.84
			c-0.07,3.39,1.21,6.58,3.6,8.98c2.36,2.37,5.55,3.66,8.98,3.64c1.09-0.01,3.21-0.01,4.28,0.01
			C588.99,285.65,594.43,281.11,595.35,274.98z M551.01,272.93c0.05,3.18-1.16,6.17-3.42,8.42c-2.23,2.22-5.23,3.42-8.46,3.38
			c-1.16-0.01-3.26-0.03-4.3-0.01c-5.91,0.08-11.01-4.2-11.85-9.97l-0.03-0.21c-0.26-1.81-0.75-5.18-0.96-6.89
			c-0.2-1.68,0.27-3.35,1.34-4.69c1.11-1.39,2.69-2.25,4.45-2.43c6.17-0.64,12.33-0.19,18.32,1.34c1.13,0.3,2.12,0.89,2.91,1.68
			c1.17,1.18,1.89,2.79,1.91,4.54c0.01,0.72,0.03,1.87,0.05,2.93L551.01,272.93z M582.72,284.84c-1.08-0.02-3.21-0.02-4.3-0.01
			c-3.23,0.02-6.23-1.19-8.44-3.42c-2.25-2.26-3.45-5.26-3.38-8.44l0.04-1.83c0.03-1.08,0.05-2.26,0.07-3
			c0.05-2.93,2.05-5.48,4.85-6.2c6-1.5,12.17-1.93,18.33-1.26c1.51,0.16,2.88,0.82,3.93,1.88c0.18,0.18,0.35,0.37,0.51,0.57
			c1.06,1.35,1.53,3.02,1.32,4.7c-0.22,1.71-0.72,5.07-0.99,6.88l-0.03,0.21C593.75,280.69,588.63,284.95,582.72,284.84z"/>
	</g>
	<polygon class="st9" points="548.08,357.7 537.04,376.71 561.57,423 584.87,382.84 572.6,374.26 	"/>
	<path id="XMLID_4_" class="st4" d="M583.43,335.75l-19.49,70.19l-2.77-0.17c0,0-8.54-22.2-16.72-41.65
		c-7.19-17.1-14.11-32.08-14.7-27.93l-39.38,50.26c-9.87,2.24,107.06,58.8,107.06,58.8"/>
</g>
</svg>
