<?xml version="1.0" encoding="utf-8"?>
<!-- Generator: Adobe Illustrator 23.0.1, SVG Export Plug-In . SVG Version: 6.00 Build 0)  -->
<svg version="1.1" id="Layer_1" xmlns="http://www.w3.org/2000/svg" xmlns:xlink="http://www.w3.org/1999/xlink" x="0px" y="0px"
	 viewBox="0 0 1102.5 170.7" style="enable-background:new 0 0 1102.5 170.7;" xml:space="preserve">
<style type="text/css">
	.st0{fill:#334A88;}
	.st1{fill:#5C6EA0;}
	.st2{fill:#263866;}
	.st3{fill:#74A8D7;}
</style>
<g>
	<g>
		<g>
			<path class="st0" d="M52.7,170.8c0.7,0,1.3-0.7,1.6-1.4c1.6-2.7,3.4-7.2,2.9-10.8c3.5,4.9,9.6,8.1,14.7,10.5
				c0.3,0.1,0.6,0.2,0.8,0.1c0.2-0.1,0.4-0.3,0.5-0.5c1.7-2.5,2.9-5.5,3.1-8.5c0.2-2.7-1.2-5.4-2.6-7.7c2,2.7,4.7,5,7.8,6.5
				c1.3,0.7,2.3,0.7,3.7,1c1.4,0.3,3.1,1.5,4.5,1.4c0.5,0,1-0.4,1.3-0.8c0.6-0.9,0.6-2.1,0.6-3.3c-0.1-2.6-0.2-5.1-0.3-7.7
				c-0.1-2.6-0.9-4.3,2-3c3.7,1.6,7.2,2.9,11.3,3.1c0.4,0-0.7-4.3-0.9-4.6c-4.1-10.3-10.5-21.3-19.2-28.3
				c-9.4-7.6-31.8-14.5-31.8-14.5c-1.6,2.2-3.2,4.5-4.8,6.7c-0.8,1.1-1.6,2.3-2.2,3.6c-0.7,1.6-0.9,3.3-1.1,5c-0.9,7-1.9,14-1.8,21
				c0.1,7.6,1.9,14.4,4.3,21.5C47.8,161.8,50.7,170.9,52.7,170.8z"/>
		</g>
		<g>
			<g>
				<path class="st1" d="M73.1,118.5c7.6,6.1,13.2,15.7,16.7,24.7c0.1,0.2,0.6,2.1,0.8,3.2c0.6,0.1,1.2,0.2,1.9,0.2
					c0.4,0-0.6-3.8-0.7-4.1c-3.5-9-9.1-18.6-16.7-24.7c-8.2-6.6-27.7-12.6-27.7-12.6c-0.2,0.3-0.5,0.7-0.7,1
					C50.9,107.6,66.1,112.9,73.1,118.5z"/>
			</g>
		</g>
		<g>
			<g>
				<path class="st1" d="M48,132.7c0.7,8.2,4.7,16.7,9.3,23.4c0.1,0.2,1.2,1.4,1.9,2.1c-0.2,0.5-0.5,0.9-0.8,1.4
					c-0.2,0.3-2.3-2.2-2.5-2.5c-4.6-6.7-8.6-15.2-9.3-23.4c-0.7-8.9,4.4-25.3,4.4-25.3c0.4,0,0.7,0,1.1,0
					C51,112,47.4,125.1,48,132.7z"/>
			</g>
		</g>
		<g>
			<path class="st1" d="M75.3,151.6c-7.6-14.3-14.8-28.9-21.6-43.6c-0.5-1.1-2.3-0.5-1.8,0.6c6.9,14.9,14.2,29.6,21.9,44
				C74.3,153.8,75.8,152.7,75.3,151.6L75.3,151.6z"/>
		</g>
		<g>
			<path class="st2" d="M44.8,115.5c0,0.3,1.2-0.3,1.3-0.5c0.6-1,1.2-2.6,1-3.9c1.3,1.8,3.4,2.9,5.3,3.8c0.1,0,0.2,0.1,0.3,0.1
				c0.1,0,0.1-0.1,0.2-0.2c0.6-0.9,1-2,1.1-3s-0.4-1.9-0.9-2.8c0.7,1,1.7,1.8,2.8,2.4c0.5,0.2,0.8,0.3,1.3,0.4
				c0.5,0.1,1.1,0.5,1.6,0.5c0.2,0,0.4-0.1,0.5-0.3c0.2-0.3,0.2-0.8,0.2-1.2c0-0.9-0.1-1.8-0.1-2.8c0-0.9-0.3-1.5,0.7-1.1
				c1.3,0.6,3.3,1.1,4.7,1.1c0.2,0-0.5-1.4-1-1.7c-3.5-1.8-3.8-7.7-6.9-10.2c-3.4-2.7-11.4-5.2-11.4-5.2c-0.6,0.8-1.1,1.6-1.7,2.4
				c-0.3,0.4-0.6,0.8-0.8,1.3c-0.2,0.6-0.3,1.2-0.4,1.8c-0.3,2.5-0.6,3.6-0.6,6.1c0,2.7,1.7,5.2,2.6,7.8
				C44.9,110.8,44.9,114.6,44.8,115.5z"/>
		</g>
		<path class="st2" d="M10.7,24.7C23,49,39.1,71.3,46.1,97.9c0.6,2.4,4.3,1.1,3.6-1.3C42.4,69,25.5,46,13,20.7C9.7,13.9,6.8,7,4,0H0
			C3.3,8.4,6.7,16.7,10.7,24.7z"/>
	</g>
	<g>
		<g>
			<path class="st0" d="M83.5,101.9c0.7-0.2,1-1,1.2-1.8c0.8-3,1.3-7.8-0.2-11.2c4.7,3.8,11.4,5.2,17,6.1c0.3,0,0.6,0.1,0.8-0.1
				c0.2-0.1,0.3-0.4,0.3-0.6c0.9-2.8,1.3-6,0.7-9c-0.5-2.7-2.7-4.8-4.6-6.7c2.7,2,5.9,3.5,9.3,4.2c1.5,0.3,2.4,0,3.8-0.1
				c1.5-0.1,3.4,0.6,4.7,0.1c0.5-0.2,0.9-0.6,1.1-1.2c0.4-1.1,0-2.2-0.4-3.3c-0.8-2.4-1.6-4.9-2.4-7.3c-0.8-2.4-2-3.9,1.1-3.4
				c4,0.6,7.7,0.9,11.7-0.1c0.4-0.1-1.9-3.9-2.1-4.2c-6.7-8.8-15.9-17.6-26.2-22C88.2,36.6,64.8,36,64.8,36
				c-0.9,2.6-1.8,5.2-2.8,7.8c-0.5,1.3-0.9,2.6-1.1,4c-0.2,1.7,0,3.4,0.3,5.1c1,7,2,13.9,4,20.7c2.1,7.3,5.7,13.3,10,19.5
				C76.3,94.6,81.6,102.6,83.5,101.9z"/>
		</g>
		<g>
			<g>
				<path class="st1" d="M88.9,46c9,3.8,17,11.5,22.8,19.2c0.1,0.2,1.1,1.8,1.6,2.9c0.6-0.1,1.2-0.2,1.9-0.3
					c0.4-0.1-1.6-3.4-1.8-3.7c-5.8-7.7-13.8-15.4-22.8-19.2c-9.7-4.1-30.1-4.6-30.1-4.6c-0.1,0.4-0.3,0.8-0.4,1.2
					C64.6,41.6,80.6,42.5,88.9,46z"/>
			</g>
		</g>
		<g>
			<g>
				<path class="st1" d="M68.7,66.5c2.9,7.7,9.1,14.8,15.3,20c0.1,0.1,1.5,1,2.4,1.5c-0.1,0.5-0.2,1-0.3,1.6c-0.1,0.3-2.8-1.5-3-1.7
					c-6.2-5.2-12.4-12.3-15.3-20c-3.1-8.3-2.7-25.6-2.7-25.6c0.3-0.1,0.7-0.2,1-0.3C65.9,45.8,66,59.4,68.7,66.5z"/>
			</g>
		</g>
		<g>
			<path class="st1" d="M100,77.3c-11.2-11.7-22.1-23.7-32.7-36c-0.8-0.9-2.4,0.2-1.6,1.1C76.4,54.8,87.4,67,98.8,78.8
				C99.6,79.6,100.8,78.2,100,77.3L100,77.3z"/>
		</g>
		<g>
			<path class="st2" d="M60.9,50.8c0,0.3,1-0.6,1.1-0.9c0.3-1.1,0.5-2.8-0.1-4c1.7,1.4,4.1,1.9,6.1,2.2c0.1,0,0.2,0,0.3,0
				c0.1,0,0.1-0.1,0.1-0.2c0.3-1,0.5-2.2,0.3-3.2s-1-1.7-1.7-2.4c1,0.7,2.1,1.3,3.3,1.5c0.5,0.1,0.9,0,1.4,0s1.2,0.2,1.7,0.1
				c0.2-0.1,0.3-0.2,0.4-0.4c0.1-0.4,0-0.8-0.1-1.2c-0.3-0.9-0.6-1.7-0.9-2.6c-0.3-0.9-0.7-1.4,0.4-1.2c1.4,0.2,3.4,0.1,4.9-0.2
				c0.2,0-0.8-1.2-1.4-1.3c-3.9-0.8-5.7-6.3-9.4-7.9c-4-1.7-12.4-1.9-12.4-1.9c-0.3,0.9-0.7,1.9-1,2.8c-0.2,0.5-0.3,1-0.4,1.5
				c-0.1,0.6,0,1.2,0.1,1.8c0.4,2.5,0.4,3.6,1.1,6.1c0.8,2.6,3.1,4.6,4.7,6.8C59.6,46.3,60.7,50,60.9,50.8z"/>
		</g>
		<path class="st2" d="M57.4,33.6c1.3,2.1,4.4-0.1,3.2-2.2C53.7,19.8,45,9.7,35.8,0.1h-5.3C40.5,10.4,50,21,57.4,33.6z"/>
	</g>
	<path class="st3" d="M143.6,0.1c0.9,3.8,2.5,6.2,2.5,6.2c3.5-1.1,6.3-2.7,8.6-4.6c0.3,0.2,0.3,0.2,0.6,0.3
		c-2.5,14.5,8.1,20.9,8.1,20.9c4-3.5,6.4-7.3,7.7-11.2c4.5,12.3,15.5,15,15.5,15c2-3.3,3.3-6.5,4.1-9.6c0.7,0.3,1.5,0.6,2.2,0.9
		c-7.9,12.4-0.6,22.4-0.6,22.4c6.8-2.2,11.2-6.2,14-10.7c4.1,11.4,14.4,13.1,14.4,13.1c2.4-4.7,3.2-9.1,3-13.1
		c1.3,0.4,2.6,0.9,3.9,1.3c2.4,6.6,7.5,9.5,7.5,9.5c2.1-1.9,3.8-4,5.1-6c0.7,0.2,1.3,0.3,2,0.4c3.2,13.7,14.9,15.8,14.9,15.8
		c2.5-4.8,3.4-9.3,3.2-13.5c0.8,0,1.6,0,2.4,0c0,9,5.8,14.2,5.8,14.2c7.3-4.4,10.7-10.5,12-16.5c0.6,0,0.5,0,1.1-0.1
		c0.8,2.3,1.8,3.7,1.8,3.7c5.4-1.8,9.3-4.6,12-8c3.7,7.5,10.5,9.6,10.5,9.6c5.1-7.2,5.7-14.3,4.3-20.6c0.2-0.1,0.2-0.1,0.4-0.2
		c6.6,4.3,13.2,3.1,13.2,3.1c0.5-3.7,0.2-6.9-0.5-9.9c1-0.5,2.1-0.9,3.2-1.3c3.8,6.3,9.7,8.2,9.7,8.2c1.8-2.5,3-5,3.8-7.5
		c4.9,2.5,9.3,2.1,9.3,2.1c0.5-2.2,0.7-4.3,0.7-6.3c3.8,0.1,7.7,0.4,11.5,0.7c3.8,6.1,9.5,7.9,9.5,7.9c1.6-2.3,2.8-4.6,3.6-6.8
		c5,5.9,11.1,7.4,11.1,7.4c1.9-3,3.1-6,3.9-8.9c0.8-0.2,1.7-0.4,2.5-0.6c6.8,4.7,13.7,3.4,13.7,3.4c0.4-3.5,0.2-6.6-0.4-9.4
		c0.6-0.4,1.1-0.8,1.6-1.2L143.6,0.1L143.6,0.1z"/>
	<path class="st2" d="M71.5,0.1C72.4,3.9,74,6.3,74,6.3c3.5-1.1,6.3-2.7,8.6-4.6c0.3,0.2,0.3,0.2,0.6,0.3
		c-2.5,14.5,8.1,20.9,8.1,20.9c4-3.5,6.4-7.3,7.7-11.2c4.5,12.3,15.5,15,15.5,15c2-3.3,3.3-6.5,4.1-9.6c0.7,0.3,1.5,0.6,2.2,0.9
		c-7.9,12.4-0.6,22.4-0.6,22.4c6.8-2.2,11.2-6.2,14-10.7c4.1,11.4,14.4,13.1,14.4,13.1c2.4-4.7,3.2-9.1,3-13.1
		c1.3,0.4,2.6,0.9,3.9,1.3c2.4,6.6,7.5,9.5,7.5,9.5c2.1-1.9,3.8-4,5.1-6c0.7,0.2,1.3,0.3,2,0.4c3.2,13.7,14.9,15.8,14.9,15.8
		c2.5-4.8,3.4-9.3,3.2-13.5c0.8,0,1.6,0,2.4,0c0,9,5.8,14.2,5.8,14.2c7.3-4.4,10.7-10.5,12-16.5c0.6,0,0.5,0,1.1-0.1
		c0.8,2.3,1.8,3.7,1.8,3.7c5.4-1.8,9.3-4.6,12-8c3.7,7.5,10.5,9.6,10.5,9.6c5.1-7.2,5.7-14.3,4.3-20.6c0.2-0.1,0.2-0.1,0.4-0.2
		c6.6,4.3,13.2,3.1,13.2,3.1c0.5-3.7,0.2-6.9-0.5-9.9c1-0.5,2.1-0.9,3.2-1.3c3.8,6.3,9.7,8.2,9.7,8.2c1.8-2.5,3-5,3.8-7.5
		c4.9,2.5,9.3,2.1,9.3,2.1c0.5-2.2,0.7-4.3,0.7-6.3c3.8,0.1,7.7,0.4,11.5,0.7c3.8,6.1,9.5,7.9,9.5,7.9c1.6-2.3,2.8-4.6,3.6-6.8
		c5,5.9,11.1,7.4,11.1,7.4c1.9-3,3.1-6,3.9-8.9c0.8-0.2,1.7-0.4,2.5-0.6c6.8,4.7,13.7,3.4,13.7,3.4c0.4-3.5,0.2-6.6-0.4-9.4
		c0.6-0.4,1.1-0.8,1.6-1.2L71.5,0.1L71.5,0.1z"/>
	<g>
		<g>
			<path class="st0" d="M1049.8,170.8c-0.7,0-1.3-0.7-1.6-1.4c-1.6-2.7-3.4-7.2-2.9-10.8c-3.5,4.9-9.6,8.1-14.7,10.5
				c-0.3,0.1-0.6,0.2-0.8,0.1c-0.2-0.1-0.4-0.3-0.5-0.5c-1.7-2.5-2.9-5.5-3.1-8.5c-0.3-2.7,1.2-5.4,2.6-7.7c-2,2.7-4.7,5-7.8,6.5
				c-1.3,0.7-2.3,0.7-3.7,1c-1.4,0.3-3.1,1.5-4.5,1.4c-0.5,0-1-0.4-1.3-0.8c-0.6-0.9-0.6-2.1-0.6-3.3c0.1-2.6,0.2-5.1,0.3-7.7
				c0.1-2.6,0.9-4.3-2-3c-3.7,1.6-7.2,2.9-11.3,3.1c-0.4,0,0.7-4.3,0.9-4.6c4.1-10.3,10.5-21.3,19.2-28.3
				c9.4-7.6,31.8-14.5,31.8-14.5c1.6,2.2,3.2,4.5,4.8,6.7c0.8,1.1,1.6,2.3,2.2,3.6c0.7,1.6,0.9,3.3,1.1,5c0.9,7,1.9,14,1.8,21
				c-0.1,7.6-1.9,14.4-4.3,21.5C1054.8,161.8,1051.8,170.9,1049.8,170.8z"/>
		</g>
		<g>
			<g>
				<path class="st1" d="M1029.4,118.5c-7.6,6.1-13.2,15.7-16.7,24.7c-0.1,0.2-0.6,2.1-0.8,3.2c-0.6,0.1-1.2,0.2-1.9,0.2
					c-0.4,0,0.6-3.8,0.7-4.1c3.5-9,9.1-18.6,16.7-24.7c8.2-6.6,27.7-12.6,27.7-12.6c0.2,0.3,0.5,0.7,0.7,1
					C1051.6,107.6,1036.4,112.9,1029.4,118.5z"/>
			</g>
		</g>
		<g>
			<g>
				<path class="st1" d="M1054.5,132.7c-0.7,8.2-4.7,16.7-9.3,23.4c-0.1,0.2-1.2,1.4-1.9,2.1c0.2,0.5,0.5,0.9,0.8,1.4
					c0.2,0.3,2.3-2.2,2.5-2.5c4.6-6.7,8.6-15.2,9.3-23.4c0.7-8.9-4.4-25.3-4.4-25.3c-0.4,0-0.7,0-1.1,0
					C1051.5,112,1055.1,125.1,1054.5,132.7z"/>
			</g>
		</g>
		<g>
			<path class="st1" d="M1027.3,151.6c7.6-14.3,14.8-28.9,21.6-43.6c0.5-1.1,2.3-0.5,1.8,0.6c-6.9,14.9-14.2,29.6-21.9,44
				C1028.3,153.8,1026.7,152.7,1027.3,151.6L1027.3,151.6z"/>
		</g>
		<g>
			<path class="st2" d="M1057.7,115.5c0,0.3-1.2-0.3-1.3-0.5c-0.6-1-1.2-2.6-1-3.9c-1.3,1.8-3.4,2.9-5.3,3.8c-0.1,0-0.2,0.1-0.3,0.1
				c-0.1,0-0.1-0.1-0.2-0.2c-0.6-0.9-1-2-1.1-3s0.4-1.9,0.9-2.8c-0.7,1-1.7,1.8-2.8,2.4c-0.5,0.2-0.8,0.3-1.3,0.4
				c-0.5,0.1-1.1,0.5-1.6,0.5c-0.2,0-0.4-0.1-0.5-0.3c-0.2-0.3-0.2-0.8-0.2-1.2c0-0.9,0.1-1.8,0.1-2.8c0-0.9,0.3-1.5-0.7-1.1
				c-1.3,0.6-3.3,1.1-4.7,1.1c-0.2,0,0.5-1.4,1-1.7c3.5-1.8,3.8-7.7,6.9-10.2c3.4-2.7,11.4-5.2,11.4-5.2c0.6,0.8,1.1,1.6,1.7,2.4
				c0.3,0.4,0.6,0.8,0.8,1.3c0.2,0.6,0.3,1.2,0.4,1.8c0.3,2.5,0.6,3.6,0.6,6.1c0,2.7-1.7,5.2-2.6,7.8
				C1057.7,110.8,1057.6,114.6,1057.7,115.5z"/>
		</g>
		<path class="st2" d="M1091.8,24.7c-12.3,24.2-28.4,46.6-35.4,73.2c-0.6,2.4-4.3,1.1-3.6-1.3c7.3-27.6,24.2-50.6,36.7-75.9
			c3.3-6.8,6.2-13.7,9-20.7h4C1099.2,8.4,1095.8,16.7,1091.8,24.7z"/>
	</g>
	<g>
		<g>
			<path class="st0" d="M1019,101.9c-0.7-0.2-1-1-1.2-1.8c-0.8-3-1.3-7.8,0.2-11.2c-4.7,3.8-11.4,5.2-17,6.1c-0.3,0-0.6,0.1-0.8-0.1
				c-0.2-0.1-0.3-0.4-0.3-0.6c-0.9-2.8-1.3-6-0.7-9c0.5-2.7,2.7-4.8,4.6-6.7c-2.7,2-5.9,3.5-9.3,4.2c-1.5,0.3-2.4,0-3.8-0.1
				c-1.5-0.1-3.4,0.6-4.7,0.1c-0.5-0.2-0.9-0.6-1.1-1.2c-0.4-1.1,0-2.2,0.4-3.3c0.8-2.4,1.6-4.9,2.4-7.3s2-3.9-1.1-3.4
				c-4,0.6-7.7,0.9-11.7-0.1c-0.4-0.1,1.9-3.9,2.1-4.2c6.7-8.8,15.9-17.6,26.2-22c11.1-4.7,34.5-5.3,34.5-5.3
				c0.9,2.6,1.8,5.2,2.8,7.8c0.5,1.3,0.9,2.6,1.1,4c0.2,1.7,0,3.4-0.3,5.1c-1,7-2,13.9-4,20.7c-2.1,7.3-5.7,13.3-10,19.5
				C1026.2,94.6,1020.9,102.6,1019,101.9z"/>
		</g>
		<g>
			<g>
				<path class="st1" d="M1013.6,46c-9,3.8-17,11.5-22.8,19.2c-0.1,0.2-1.1,1.8-1.6,2.9c-0.6-0.1-1.2-0.2-1.9-0.3
					c-0.4-0.1,1.6-3.4,1.8-3.7c5.8-7.7,13.8-15.4,22.8-19.2c9.7-4.1,30.1-4.6,30.1-4.6c0.1,0.4,0.3,0.8,0.4,1.2
					C1038,41.6,1021.9,42.5,1013.6,46z"/>
			</g>
		</g>
		<g>
			<g>
				<path class="st1" d="M1033.9,66.5c-2.9,7.7-9.1,14.8-15.3,20c-0.1,0.1-1.5,1-2.4,1.5c0.1,0.5,0.2,1,0.3,1.6
					c0.1,0.3,2.8-1.5,3-1.7c6.2-5.2,12.4-12.3,15.3-20c3.1-8.3,2.7-25.6,2.7-25.6c-0.3-0.1-0.7-0.2-1-0.3
					C1036.6,45.8,1036.5,59.4,1033.9,66.5z"/>
			</g>
		</g>
		<g>
			<path class="st1" d="M1002.5,77.3c11.2-11.7,22.1-23.7,32.7-36c0.8-0.9,2.4,0.2,1.6,1.1c-10.7,12.4-21.7,24.5-33,36.4
				C1002.9,79.6,1001.7,78.2,1002.5,77.3L1002.5,77.3z"/>
		</g>
		<g>
			<path class="st2" d="M1041.7,50.8c0,0.3-1-0.6-1.1-0.9c-0.3-1.1-0.5-2.8,0.1-4c-1.7,1.4-4.1,1.9-6.1,2.2c-0.1,0-0.2,0-0.3,0
				c-0.1,0-0.1-0.1-0.1-0.2c-0.3-1-0.5-2.2-0.3-3.2c0.2-1,1-1.7,1.7-2.4c-1,0.7-2.1,1.3-3.3,1.5c-0.5,0.1-0.9,0-1.4,0
				s-1.2,0.2-1.7,0.1c-0.2-0.1-0.3-0.2-0.4-0.4c-0.1-0.4,0-0.8,0.1-1.2c0.3-0.9,0.6-1.7,0.9-2.6c0.3-0.9,0.7-1.4-0.4-1.2
				c-1.4,0.2-3.4,0.1-4.9-0.2c-0.2,0,0.8-1.2,1.4-1.3c3.9-0.8,5.7-6.3,9.4-7.9c4-1.7,12.4-1.9,12.4-1.9c0.3,0.9,0.7,1.9,1,2.8
				c0.2,0.5,0.3,1,0.4,1.5c0.1,0.6,0,1.2-0.1,1.8c-0.4,2.5-0.4,3.6-1.1,6.1c-0.8,2.6-3.1,4.6-4.7,6.8
				C1042.9,46.3,1041.8,50,1041.7,50.8z"/>
		</g>
		<path class="st2" d="M1045.1,33.6c-1.3,2.1-4.4-0.1-3.2-2.2c6.9-11.6,15.6-21.7,24.8-31.3h5.3C1062.1,10.4,1052.5,21,1045.1,33.6z
			"/>
	</g>
	<path class="st3" d="M959,0.1c-0.9,3.8-2.5,6.2-2.5,6.2c-3.5-1.1-6.3-2.7-8.6-4.6c-0.3,0.2-0.3,0.2-0.6,0.3
		c2.5,14.5-8.1,20.9-8.1,20.9c-4-3.5-6.4-7.3-7.7-11.2C927,24,916,26.7,916,26.7c-2-3.3-3.3-6.5-4.1-9.6c-0.7,0.3-1.5,0.6-2.2,0.9
		c7.9,12.4,0.6,22.4,0.6,22.4c-6.8-2.2-11.2-6.2-14-10.7c-4.1,11.4-14.4,13.1-14.4,13.1c-2.4-4.7-3.2-9.1-3-13.1
		c-1.3,0.4-2.6,0.9-3.9,1.3c-2.4,6.6-7.5,9.5-7.5,9.5c-2.1-1.9-3.8-4-5.1-6c-0.7,0.2-1.3,0.3-2,0.4c-3.2,13.7-14.9,15.8-14.9,15.8
		c-2.5-4.8-3.4-9.3-3.2-13.5c-0.8,0-1.6,0-2.4,0c0,9-5.8,14.2-5.8,14.2c-7.3-4.4-10.7-10.5-12-16.5c-0.6,0-0.5,0-1.1-0.1
		c-0.8,2.3-1.8,3.7-1.8,3.7c-5.4-1.8-9.3-4.6-12-8c-3.7,7.5-10.5,9.6-10.5,9.6c-5.1-7.2-5.7-14.3-4.3-20.6c-0.2-0.1-0.2-0.1-0.4-0.2
		c-6.6,4.3-13.2,3.1-13.2,3.1c-0.5-3.7-0.2-6.9,0.5-9.9c-1-0.5-2.1-0.9-3.2-1.3c-3.8,6.3-9.7,8.2-9.7,8.2c-1.8-2.5-3-5-3.8-7.5
		c-4.9,2.5-9.3,2.1-9.3,2.1c-0.5-2.2-0.7-4.3-0.7-6.3c-3.8,0.1-7.7,0.4-11.5,0.7c-3.8,6.1-9.5,7.9-9.5,7.9c-1.6-2.3-2.8-4.6-3.6-6.8
		c-5,5.9-11.1,7.4-11.1,7.4c-1.9-3-3.1-6-3.9-8.9c-0.8-0.2-1.7-0.4-2.5-0.6c-6.8,4.7-13.7,3.4-13.7,3.4c-0.4-3.5-0.2-6.6,0.4-9.4
		c-0.6-0.4-1.1-0.8-1.6-1.2L959,0.1L959,0.1z"/>
	<path class="st2" d="M1031,0.1c-0.9,3.8-2.5,6.2-2.5,6.2c-3.5-1.1-6.3-2.7-8.6-4.6c-0.3,0.2-0.3,0.2-0.6,0.3
		c2.5,14.5-8.1,20.9-8.1,20.9c-4-3.5-6.4-7.3-7.7-11.2C999,24,988,26.7,988,26.7c-2-3.3-3.3-6.5-4.1-9.6c-0.7,0.3-1.5,0.6-2.2,0.9
		c7.9,12.4,0.6,22.4,0.6,22.4c-6.8-2.2-11.2-6.2-14-10.7c-4.1,11.4-14.4,13.1-14.4,13.1c-2.4-4.7-3.2-9.1-3-13.1
		c-1.3,0.4-2.6,0.9-3.9,1.3c-2.4,6.6-7.5,9.5-7.5,9.5c-2.1-1.9-3.8-4-5.1-6c-0.7,0.2-1.3,0.3-2,0.4c-3.2,13.7-14.9,15.8-14.9,15.8
		c-2.5-4.8-3.4-9.3-3.2-13.5c-0.8,0-1.6,0-2.4,0c0,9-5.8,14.2-5.8,14.2c-7.3-4.4-10.7-10.5-12-16.5c-0.6,0-0.5,0-1.1-0.1
		c-0.8,2.3-1.8,3.7-1.8,3.7c-5.4-1.8-9.3-4.6-12-8c-3.7,7.5-10.5,9.6-10.5,9.6c-5.1-7.2-5.7-14.3-4.3-20.6c-0.2-0.1-0.2-0.1-0.4-0.2
		c-6.6,4.3-13.2,3.1-13.2,3.1c-0.5-3.7-0.2-6.9,0.5-9.9c-1-0.5-2.1-0.9-3.2-1.3c-3.8,6.3-9.7,8.2-9.7,8.2c-1.8-2.5-3-5-3.8-7.5
		c-4.9,2.5-9.3,2.1-9.3,2.1c-0.5-2.2-0.7-4.3-0.7-6.3c-3.8,0.1-7.7,0.4-11.5,0.7c-3.8,6.1-9.5,7.9-9.5,7.9c-1.6-2.3-2.8-4.6-3.6-6.8
		c-5,5.9-11.1,7.4-11.1,7.4c-1.9-3-3.1-6-3.9-8.9c-0.8-0.2-1.7-0.4-2.5-0.6c-6.8,4.7-13.7,3.4-13.7,3.4c-0.4-3.5-0.2-6.6,0.4-9.4
		c-0.6-0.4-1.1-0.8-1.6-1.2L1031,0.1L1031,0.1z"/>
</g>
</svg>
