<?xml version="1.0" encoding="utf-8"?>
<!-- Generator: Adobe Illustrator 23.0.1, SVG Export Plug-In . SVG Version: 6.00 Build 0)  -->
<svg version="1.1" id="Layer_1" xmlns="http://www.w3.org/2000/svg" xmlns:xlink="http://www.w3.org/1999/xlink" x="0px" y="0px"
	 viewBox="0 0 311.1 323.1" style="enable-background:new 0 0 311.1 323.1;" xml:space="preserve">
<style type="text/css">
	.st0{fill:#FFFFFF;}
	.st1{fill:#F3B800;}
	.st2{fill:#EDE7DC;}
</style>
<g>
	<path id="XMLID_180_" class="st0" d="M0,33.8h311.1V316c0,3.9-3.2,7.1-7.1,7.1H7.1c-3.9,0-7.1-3.2-7.1-7.1V33.8z"/>
	<path id="XMLID_177_" class="st0" d="M311.1,36.1V11.8c0-6.5-5.3-11.8-11.8-11.8H11.8C5.3,0,0,5.3,0,11.8v24.3H311.1z"/>
	<path id="XMLID_173_" class="st1" d="M29.4,18c0,2-1.7,3.7-3.7,3.7S22,20,22,18s1.7-3.7,3.7-3.7C27.8,14.3,29.4,16,29.4,18z"/>
	<path id="XMLID_172_" class="st1" d="M46.1,18c0,2-1.7,3.7-3.7,3.7S38.7,20,38.7,18s1.7-3.7,3.7-3.7C44.4,14.3,46.1,16,46.1,18z"/>
	<path id="XMLID_171_" class="st1" d="M62.7,18c0,2-1.7,3.7-3.7,3.7S55.3,20,55.3,18s1.7-3.7,3.7-3.7S62.7,16,62.7,18z"/>
	<circle class="st2" cx="17.6" cy="58.3" r="3"/>
	<path class="st2" d="M20.6,75.8c0,1.6-1.3,3-3,3c-1.6,0-3-1.3-3-3c0-1.6,1.3-3,3-3C19.2,72.8,20.6,74.1,20.6,75.8z"/>
	<circle class="st2" cx="17.6" cy="93.3" r="3"/>
	<circle class="st2" cx="17.6" cy="110.8" r="3"/>
	<circle class="st2" cx="17.6" cy="128.3" r="3"/>
	<circle class="st2" cx="17.6" cy="145.8" r="3"/>
</g>
</svg>
