<?xml version="1.0" encoding="utf-8"?>
<!-- Generator: Adobe Illustrator 23.0.1, SVG Export Plug-In . SVG Version: 6.00 Build 0)  -->
<svg version="1.1" id="Layer_1" xmlns="http://www.w3.org/2000/svg" xmlns:xlink="http://www.w3.org/1999/xlink" x="0px" y="0px"
	 viewBox="0 0 690.3 175" style="enable-background:new 0 0 690.3 175;" xml:space="preserve">
<style type="text/css">
	.st0{fill:#334A88;}
	.st1{opacity:0.31;fill:#071835;}
	.st2{fill:#D0D2D6;}
	.st3{fill:#F3B800;}
	.st4{fill:#071835;}
	.st5{fill:#ECEEF4;}
	.st6{fill:#74A8D7;}
	.st7{opacity:0.57;}
	.st8{fill:#ACCBE7;}
	.st9{opacity:0.31;}
	.st10{fill:#B68A00;}
</style>
<g>
	<path class="st0" d="M546.7,100.8l9.5,2.6l1.9-3.2l-13.3-4.3l-5.4,0.9l0.1-1.3l1.9-1.2l12.9-1.6c1.3-0.2,2.5-0.9,3.2-2l1.2-1.8
		L542,89.4l-9.7-1.5l-11.3,5.6l-6.8,8.2l-65,9l-55.2-28l-8.9,27.9l65.8,24.4l62.3-19.4l8.9-1.6l12.5-6l12.7,2.9
		c0.6,0.1,1.2,0,1.8-0.3l2.2-1.4l-14.6-5.4l1.6-2.6L546.7,100.8z"/>
	<path class="st0" d="M546.7,100.8l9.5,2.6l1.9-3.2l-13.3-4.3l-5.4,0.9l0.1-1.3l1.9-1.2l12.9-1.6c1.3-0.2,2.5-0.9,3.2-2l1.2-1.8
		L542,89.4l-9.7-1.5l-11.3,5.6l-6.8,8.2l-65,9l-55.2-28l-8.9,27.9l65.8,24.4l62.3-19.4l8.9-1.6l12.5-6l12.7,2.9
		c0.6,0.1,1.2,0,1.8-0.3l2.2-1.4l-14.6-5.4l1.6-2.6L546.7,100.8z"/>
	<path class="st1" d="M546.7,100.8l9.5,2.6l1.9-3.2l-13.3-4.3l-5.4,0.9l0.1-1.3l1.9-1.2l12.9-1.6c1.3-0.2,2.5-0.9,3.2-2l1.2-1.8
		L542,89.4l-9.7-1.5l-11.3,5.6l-6.8,8.2l-65,9l-55.2-28l-8.9,27.9l65.8,24.4l62.3-19.4l8.9-1.6l12.5-6l12.7,2.9
		c0.6,0.1,1.2,0,1.8-0.3l2.2-1.4l-14.6-5.4l1.6-2.6L546.7,100.8z"/>
	<polygon id="XMLID_12_" class="st0" points="135.4,64.6 131.3,61 147.6,46.4 154.8,54.5 	"/>
	<path id="XMLID_9_" class="st2" d="M205.3,129.4l-9.4-4.6c-5.3-2.6-10.1-6.1-14.1-10.5l-46.3-49.8l19.3-10l60.9,50.7
		c1.8,1.5,3.9,2.5,6.1,3l48.1,8.6l-13.8,4.3L205.3,129.4z"/>
	<path id="XMLID_5_" class="st3" d="M131.3,61l-14.7-4.6l-1.1-2.2c-0.7-1.3-0.4-2.9,0.6-3.9l12.3-12.1c2.6-2.5,6.7-2.7,9.5-0.3
		l9.7,8.5L131.3,61z"/>
	<path class="st4" d="M119.7,56.5c-0.7-1.3-0.4-2.9,0.6-3.9l12.3-12.1c1.7-1.6,4-2.3,6.1-1.9l-0.8-0.7c-2.7-2.4-6.9-2.3-9.5,0.3
		l-12.3,12.1c-1,1-1.3,2.6-0.6,3.9l1.1,2.2l3.6,1.1L119.7,56.5z"/>
	<g>
		<path class="st2" d="M655.2,148.5l-85.5,16.7c-1.9,0.4-4-0.2-5.5-1.4l-60.4-51.9c-1.5-1.3-2.3-3.3-2-5.3l0.4-2.8l92-12.2l66,50.1
			l-0.2,1.7C659.7,146,657.7,148,655.2,148.5z"/>
		<path class="st5" d="M660.2,141.7l-89.9,17.5c-1.8,0.4-3.7-0.1-5.2-1.4l-63-54.1L595,85.7L660.2,141.7z"/>
		<path class="st2" d="M643.6,138.2l-71.6,14c-1.4,0.3-2.8-0.1-3.9-1l-49.7-41.4c-0.9-0.8-0.5-2.2,0.6-2.4l63-12.3L643.6,138.2z"/>
		<path class="st5" d="M690.2,82.5l-28.3,56.8c-0.5,2.4-3.3,3.5-5.3,2.1l-70.2-49.1c-1.8-1.3-2.7-3.5-2.3-5.7l28.3-56.8
			c0.5-2.4,3.3-3.5,5.3-2.1l70.2,49.1C689.7,78.2,690.6,80.4,690.2,82.5z"/>
		<path class="st2" d="M687.2,82.2l-29,57.8c-0.5,2.4-3.3,3.5-5.3,2.1l-70.2-49.1c-1.8-1.3-2.7-3.5-2.3-5.7l29-57.8
			c0.5-2.4,3.3-3.5,5.3-2.1l70.2,49.1C686.7,77.8,687.6,80,687.2,82.2z"/>
		<path class="st0" d="M681.4,82.5L655.5,134c-0.4,2.2-3,3.2-4.8,1.9l-62.6-43.7c-1.6-1.1-2.4-3.1-2-5.1L612,35.6
			c0.4-2.2,3-3.2,4.8-1.9l62.6,43.7C681,78.5,681.8,80.5,681.4,82.5z"/>
		<path class="st6" d="M681.4,82.5L655.5,134c-0.4,2.2-3,3.2-4.8,1.9l-62.6-43.7c-1.6-1.1-2.4-3.1-2-5.1L612,35.6
			c0.4-2.2,3-3.2,4.8-1.9l62.6,43.7C681,78.5,681.8,80.5,681.4,82.5z"/>
		<g class="st7">
			<path class="st8" d="M679.3,77.4l-57.2-40c-0.1,0.7-0.3,1.3-0.5,1.9c-1.2,3.8-3.6,7.2-5,11c-2.4,6.5-1.9,14.1,1.5,20.2
				c3.5,6.4,9.5,10.8,14.7,15.9c5.1,5.1,9.7,11.9,8.6,19.1c-0.7,5.1-4.1,9.4-5.7,14.3c-0.5,1.6-0.8,3.3-0.9,4.9l15.8,11.1
				c1.8,1.3,4.3,0.3,4.8-1.9l25.9-51.5C681.8,80.5,681,78.5,679.3,77.4z"/>
		</g>
	</g>
	<path id="XMLID_1_" class="st0" d="M455.8,119.9l37.2,26.7l67.2,3.1l9.8-0.5l13.1-6.1l0,0c1.7,2.8,1.5,6.4-0.6,9l-3.3,4.1l-1.1,4.4
		l2.1,2.5l14.1-2.8c1.8,1.5-7.1,9.4-9.2,10.5l-3.1,0.5l-19.9-4.9l-10.8-4.2l-62,9.8c-3.9,0.6-7.9-0.2-11.3-2.2l-42.4-26L455.8,119.9
		z"/>
	<g class="st9">
		<path class="st4" d="M580.7,151.3l-1,4.3l2.7-3.4c1.2-1.5,1.7-3.3,1.6-5.1c0,0,0,0.1-0.1,0.1L580.7,151.3z"/>
		<path class="st4" d="M594.3,160.4l-1.5,0.3c-2.3,2.3-5.1,4.6-6.1,5.2l-3.9,3l-19-7.4l-5.1-0.9c-3.8-0.7-7.8-0.8-11.6-0.3
			l-52.6,6.2c-3.9,0.6-10.8-3.9-14.1-6L439,139.9l-3.3,3.9l42.4,26c3.4,2.1,7.4,2.9,11.3,2.2l62-9.8l10.8,4.2l19.9,4.9l3.1-0.5
			C587.2,169.8,596.1,161.9,594.3,160.4z"/>
	</g>
	<polygon id="XMLID_13_" class="st0" points="62.5,131.5 54,129.4 55.7,112.6 52.4,106.2 68,109 	"/>
	<path id="XMLID_11_" class="st5" d="M62.5,131.9l104.2,35.4c5.7,2.3,11.9,3.4,18,3.4l139.8,2l1.5-64.5c0,0-27.8-14-52.5,6.9
		l-100.7,21L68,109.4L62.5,131.9z"/>
	<path class="st2" d="M186.8,164c-6.2,0-13.1,1-18.9-1.3L63,129.3l5.4-19.8l-0.4-0.1l-5.5,22.5l104.2,35.4c5.7,2.3,11.9,3.4,18,3.4
		l139.8,2l1.7-13.7L186.8,164z"/>
	<path id="XMLID_10_" class="st3" d="M47,105.4L9.8,125.9c-3.8,2.2-6.7,5.7-8.1,9.9l-1,3c-1.1,3.1-0.8,6.5,0.7,9.4l0,0
		c2.1,4,6.1,6.4,10.6,6.4l0,0c4,0,7.9-1.2,11.2-3.5l32-22.2l1.5-14.7l-4-7.7C51.4,104.4,49.1,104.2,47,105.4z"/>
	<path class="st4" d="M50.9,103.3L9.8,125.9c-3.8,2.2-6.7,5.7-8.1,9.9l-1,3c-1.1,3.1-0.8,6.5,0.7,9.4c2.1,4,6.1,6.4,10.6,6.4
		c4,0,7.9-1.2,11.2-3.5l32-22.2l1.5-14.7l0.4-9.2C55.9,102.8,53.1,102,50.9,103.3z"/>
	<path id="XMLID_15_" class="st3" d="M48.3,108.3l-36.7,21.1c-3.8,2.2-6.7,5.7-8.1,9.9l-1,3c-1.1,3.1-0.8,6.5,0.7,9.4l0,0
		c2.1,4,6.1,6.4,10.6,6.4l0,0c4,0,4.8-1.9,8.1-4.1l13.6-10.2l25.4-12.7l-2.4-13.3l0.5-10.4C56.6,102.8,50.5,107.1,48.3,108.3z"/>
	<path id="XMLID_4_" class="st3" d="M323.8,104.5l23.4,0.4c9.9,0.5,19.6-2.8,27.2-9.2l36.8-31.2l12.9,2.5L438.4,89
		c4,6.1,5.2,13.7,3.3,20.8l0,0l14.1,10.1l-20.1,23.9l-13.2-6.6l0,0c-1.7,5.7-6.1,10.1-11.6,12.1L394,155c-4.5,1.6-9.2,2.7-13.9,3.6
		c-6.3,1.1-13.9,2.8-21.1,4c-4.2,0.7-8.4,1.8-12.5,3.1l-33.1,9.2C313.4,175,328.7,140,323.8,104.5z"/>
	<g>
		<path class="st10" d="M325.2,104.5l-1.5,0c3.1,22.4-1.9,44.7-5.9,58C321.8,150.4,327.7,127.8,325.2,104.5z"/>
		<path class="st10" d="M411.8,145.9l-16.8,4c-4.5,1.6-7.1,5.3-11.8,6.1c-6.3,1.1-17.2,3.4-24.5,4.7c-4.2,0.7-9.2,2.3-13.3,3.6
			l-30.7,7.3c-0.8,2.2-1.4,3.4-1.4,3.4l33.1-9.2c4.1-1.3,8.3-2.4,12.5-3.1c7.3-1.2,14.8-2.9,21.1-4c4.7-0.8,9.3-2,13.9-3.6l16.8-5.8
			c5.6-1.9,9.9-6.4,11.6-12.1C422.4,137.2,417.4,144,411.8,145.9z"/>
	</g>
	<path class="st0" d="M486.2,64.4c-2.4-2.9-3.1-8.9-3.1-8.9l3.9-2c8.4-20.4-17-32.8-17-32.8c-12.1-6.7-32.2,16.7-32.2,16.7
		c-8.4,17.9,2.4,35.2,2.4,35.2l-16-4.7l16.9,30.9c0,0,6.8-16.7,18.5-17.1c6.4,3,14,0.3,17.2-6l4.7-9.5l4.1-0.4
		C486.4,65.8,486.7,65,486.2,64.4z"/>
	<path class="st1" d="M480.3,47.2c6.8-16.4-9.6-23.8-15.8-27.6c-11.8,0.6-26.6,17.8-26.6,17.8c-8.4,17.9,2.4,35.2,2.4,35.2l-16-4.7
		l10.2,18.6c1.7-2.7,5.3-5.7,8.1-7.8c3.1-2.3,5.9-5.2,8-8.5c0.9-1.4,1.7-2.9,2-3.9c2.2-7.5,9.9-10.5,17.7-11.4l0,0
		c2.9,0.1,5.6-1.4,7.2-3.8L480.3,47.2z"/>
	<g>
		<path class="st4" d="M478.3,4.3c-4.2-2-8.6-3.8-13.2-4.2c-13.1-1.2-24.1,8.8-35.9,14.5c-10.7,5.2-23,7-34.8,5.2
			c-8.1-1.3-16.1-4.2-24.2-2.7c-15.9,2.9-24.6,21.3-39.9,26.5c-5.7,1.9-11.9,1.9-17.8,3.2c-13.3,2.9-21.3,14-11.6,25.4
			c8.2,9.7,12.7,8.2,24.7,8.5c12.5,0.3,24,12.3,35.9,8.3c4.7-1.6,8.3-5.5,13-7.1c5.7-2,11.9-0.3,17.7,1.1c9.7,2.3,20,3.8,29.7,1.7
			c9.8-2.1,19.1-8.5,22.4-18c1.4-4.1,1.7-8.7,4.2-12.3c3.9-5.7,12-3.1,17.8-3.6c13.7-1.2,36.2-11.6,30.9-29.1
			C494.8,13.2,486.4,8,478.3,4.3z"/>
	</g>
	<g>
		<path class="st6" d="M313.2,50.4c5.9-1.3,12.1-1.2,17.8-3.2c15.3-5.2,24-23.6,39.9-26.5c8-1.5,16.1,1.5,24.2,2.7
			c11.8,1.8,24.1,0,34.8-5.2c11.8-5.7,22.8-15.6,35.9-14.5c4.6,0.4,9,2.2,13.2,4.2c8,3.7,16.5,8.9,19.1,17.4
			c0.1,0.2,0.1,0.4,0.1,0.6c-0.1-1.4-0.3-2.8-0.7-4.3c-2.6-8.5-11-13.6-19.1-17.4c-4.2-2-8.6-3.8-13.2-4.2
			c-13.1-1.2-24.1,8.8-35.9,14.5c-10.7,5.2-23,7-34.8,5.2c-8.1-1.3-16.1-4.2-24.2-2.7c-15.9,2.9-24.6,21.3-39.9,26.5
			c-5.7,1.9-11.9,1.9-17.8,3.2c-10.8,2.4-18.1,10.1-15.3,19.1C297.3,58.4,303.9,52.4,313.2,50.4z"/>
	</g>
	<path class="st10" d="M399.8,123.4l11.7,25.6c5.3-2,9.3-6.4,11-11.8l2.8,1.4l0,0L399.8,123.4z"/>
</g>
</svg>
