<?xml version="1.0" encoding="utf-8"?>
<!-- Generator: Adobe Illustrator 23.0.1, SVG Export Plug-In . SVG Version: 6.00 Build 0)  -->
<svg version="1.1" id="Layer_1" xmlns="http://www.w3.org/2000/svg" xmlns:xlink="http://www.w3.org/1999/xlink" x="0px" y="0px"
	 viewBox="0 0 1069 175" style="enable-background:new 0 0 1069 175;" xml:space="preserve">
<style type="text/css">
	.st0{fill:#334A88;}
	.st1{opacity:0.31;fill:#071835;}
	.st2{fill:#D0D2D6;}
	.st3{fill:#F3B800;}
	.st4{fill:#071835;}
	.st5{fill:#ECEEF4;}
	.st6{fill:#74A8D7;}
	.st7{opacity:0.57;}
	.st8{fill:#ACCBE7;}
	.st9{opacity:0.31;}
	.st10{fill:#B68A00;}
	.st11{fill:#FFFFFF;}
	.st12{font-family:'Montserrat-Bold';}
	.st13{font-size:12px;}
</style>
<g>
	<g>
		<path class="st0" d="M736,100.8l9.5,2.6l1.9-3.2l-13.3-4.3l-5.4,0.9l0.1-1.3l1.9-1.2l12.9-1.6c1.3-0.2,2.5-0.9,3.2-2l1.2-1.8
			l-16.5,0.5l-9.7-1.5l-11.3,5.6l-6.8,8.2l-65,9l-55.2-28l-8.9,27.9l65.8,24.4l62.3-19.4l8.9-1.6l12.5-6l12.7,2.9
			c0.6,0.1,1.2,0,1.8-0.3l2.2-1.4l-14.6-5.4l1.6-2.6L736,100.8z"/>
		<path class="st0" d="M736,100.8l9.5,2.6l1.9-3.2l-13.3-4.3l-5.4,0.9l0.1-1.3l1.9-1.2l12.9-1.6c1.3-0.2,2.5-0.9,3.2-2l1.2-1.8
			l-16.5,0.5l-9.7-1.5l-11.3,5.6l-6.8,8.2l-65,9l-55.2-28l-8.9,27.9l65.8,24.4l62.3-19.4l8.9-1.6l12.5-6l12.7,2.9
			c0.6,0.1,1.2,0,1.8-0.3l2.2-1.4l-14.6-5.4l1.6-2.6L736,100.8z"/>
		<path class="st1" d="M736,100.8l9.5,2.6l1.9-3.2l-13.3-4.3l-5.4,0.9l0.1-1.3l1.9-1.2l12.9-1.6c1.3-0.2,2.5-0.9,3.2-2l1.2-1.8
			l-16.5,0.5l-9.7-1.5l-11.3,5.6l-6.8,8.2l-65,9l-55.2-28l-8.9,27.9l65.8,24.4l62.3-19.4l8.9-1.6l12.5-6l12.7,2.9
			c0.6,0.1,1.2,0,1.8-0.3l2.2-1.4l-14.6-5.4l1.6-2.6L736,100.8z"/>
		<polygon id="XMLID_12_" class="st0" points="324.8,64.6 320.7,61 337,46.4 344.1,54.5 		"/>
		<path id="XMLID_9_" class="st2" d="M394.7,129.4l-9.4-4.6c-5.3-2.6-10.1-6.1-14.1-10.5l-46.3-49.8l19.3-10l60.9,50.7
			c1.8,1.5,3.9,2.5,6.1,3l48.1,8.6l-13.8,4.3L394.7,129.4z"/>
		<path id="XMLID_5_" class="st3" d="M320.7,61L306,56.4l-1.1-2.2c-0.7-1.3-0.4-2.9,0.6-3.9l12.3-12.1c2.6-2.5,6.7-2.7,9.5-0.3
			l9.7,8.5L320.7,61z"/>
		<path class="st4" d="M309,56.5c-0.7-1.3-0.4-2.9,0.6-3.9L322,40.5c1.7-1.6,4-2.3,6.1-1.9l-0.8-0.7c-2.7-2.4-6.9-2.3-9.5,0.3
			l-12.3,12.1c-1,1-1.3,2.6-0.6,3.9l1.1,2.2l3.6,1.1L309,56.5z"/>
		<g>
			<path class="st2" d="M844.6,148.5l-85.5,16.7c-1.9,0.4-4-0.2-5.5-1.4l-60.4-51.9c-1.5-1.3-2.3-3.3-2-5.3l0.4-2.8l92-12.2l66,50.1
				l-0.2,1.7C849,146,847.1,148,844.6,148.5z"/>
			<path class="st5" d="M849.6,141.7l-89.9,17.5c-1.8,0.4-3.7-0.1-5.2-1.4l-63-54.1l92.8-18.1L849.6,141.7z"/>
			<path class="st2" d="M833,138.2l-71.6,14c-1.4,0.3-2.8-0.1-3.9-1l-49.7-41.4c-0.9-0.8-0.5-2.2,0.6-2.4l63-12.3L833,138.2z"/>
			<path class="st5" d="M879.5,82.5l-28.3,56.8c-0.5,2.4-3.3,3.5-5.3,2.1l-70.2-49.1c-1.8-1.3-2.7-3.5-2.3-5.7l28.3-56.8
				c0.5-2.4,3.3-3.5,5.3-2.1l70.2,49.1C879,78.2,880,80.4,879.5,82.5z"/>
			<path class="st2" d="M876.5,82.2l-29,57.8c-0.5,2.4-3.3,3.5-5.3,2.1l-70.2-49.1c-1.8-1.3-2.7-3.5-2.3-5.7l29-57.8
				c0.5-2.4,3.3-3.5,5.3-2.1l70.2,49.1C876.1,77.8,877,80,876.5,82.2z"/>
			<path class="st0" d="M870.7,82.5L844.8,134c-0.4,2.2-3,3.2-4.8,1.9l-62.6-43.7c-1.6-1.1-2.4-3.1-2-5.1l25.9-51.5
				c0.4-2.2,3-3.2,4.8-1.9l62.6,43.7C870.3,78.5,871.1,80.5,870.7,82.5z"/>
			<path class="st6" d="M870.7,82.5L844.8,134c-0.4,2.2-3,3.2-4.8,1.9l-62.6-43.7c-1.6-1.1-2.4-3.1-2-5.1l25.9-51.5
				c0.4-2.2,3-3.2,4.8-1.9l62.6,43.7C870.3,78.5,871.1,80.5,870.7,82.5z"/>
			<g class="st7">
				<path class="st8" d="M868.7,77.4l-57.2-40c-0.1,0.7-0.3,1.3-0.5,1.9c-1.2,3.8-3.6,7.2-5,11c-2.4,6.5-1.9,14.1,1.5,20.2
					c3.5,6.4,9.5,10.8,14.7,15.9c5.1,5.1,9.7,11.9,8.6,19.1c-0.7,5.1-4.1,9.4-5.7,14.3c-0.5,1.6-0.8,3.3-0.9,4.9l15.8,11.1
					c1.8,1.3,4.3,0.3,4.8-1.9l25.9-51.5C871.1,80.5,870.3,78.5,868.7,77.4z"/>
			</g>
		</g>
		<path id="XMLID_1_" class="st0" d="M645.1,119.9l37.2,26.7l67.2,3.1l9.8-0.5l13.1-6.1l0,0c1.7,2.8,1.5,6.4-0.6,9l-3.3,4.1
			l-1.1,4.4l2.1,2.5l14.1-2.8c1.8,1.5-7.1,9.4-9.2,10.5l-3.1,0.5l-19.9-4.9l-10.8-4.2l-62,9.8c-3.9,0.6-7.9-0.2-11.3-2.2l-42.4-26
			L645.1,119.9z"/>
		<g class="st9">
			<path class="st4" d="M770.1,151.3l-1,4.3l2.7-3.4c1.2-1.5,1.7-3.3,1.6-5.1c0,0,0,0.1-0.1,0.1L770.1,151.3z"/>
			<path class="st4" d="M783.6,160.4l-1.5,0.3c-2.3,2.3-5.1,4.6-6.1,5.2l-3.9,3l-19-7.4l-5.1-0.9c-3.8-0.7-7.8-0.8-11.6-0.3
				l-52.6,6.2c-3.9,0.6-10.8-3.9-14.1-6l-41.3-20.7l-3.3,3.9l42.4,26c3.4,2.1,7.4,2.9,11.3,2.2l62-9.8l10.8,4.2l19.9,4.9l3.1-0.5
				C776.5,169.8,785.4,161.9,783.6,160.4z"/>
		</g>
		<polygon id="XMLID_13_" class="st0" points="251.8,131.5 243.4,129.4 245.1,112.6 241.8,106.2 257.3,109 		"/>
		<path id="XMLID_11_" class="st5" d="M251.8,131.9L356,167.3c5.7,2.3,11.9,3.4,18,3.4l139.8,2l1.5-64.5c0,0-27.8-14-52.5,6.9
			l-100.7,21l-104.8-26.6L251.8,131.9z"/>
		<path class="st2" d="M376.2,164c-6.2,0-13.1,1-18.9-1.3l-104.9-33.4l5.4-19.8l-0.4-0.1l-5.5,22.5L356,167.3
			c5.7,2.3,11.9,3.4,18,3.4l139.8,2l1.7-13.7L376.2,164z"/>
		<path id="XMLID_10_" class="st3" d="M236.3,105.4l-37.2,20.5c-3.8,2.2-6.7,5.7-8.1,9.9l-1,3c-1.1,3.1-0.8,6.5,0.7,9.4l0,0
			c2.1,4,6.1,6.4,10.6,6.4l0,0c4,0,7.9-1.2,11.2-3.5l32-22.2l1.5-14.7l-4-7.7C240.8,104.4,238.5,104.2,236.3,105.4z"/>
		<path class="st4" d="M240.2,103.3l-41.1,22.7c-3.8,2.2-6.7,5.7-8.1,9.9l-1,3c-1.1,3.1-0.8,6.5,0.7,9.4c2.1,4,6.1,6.4,10.6,6.4
			c4,0,7.9-1.2,11.2-3.5l32-22.2l1.5-14.7l0.4-9.2C245.2,102.8,242.4,102,240.2,103.3z"/>
		<path id="XMLID_15_" class="st3" d="M237.7,108.3L201,129.5c-3.8,2.2-6.7,5.7-8.1,9.9l-1,3c-1.1,3.1-0.8,6.5,0.7,9.4l0,0
			c2.1,4,6.1,6.4,10.6,6.4l0,0c4,0,4.8-1.9,8.1-4.1l13.6-10.2l25.4-12.7l-2.4-13.3l0.5-10.4C245.9,102.8,239.8,107.1,237.7,108.3z"
			/>
		<path id="XMLID_4_" class="st3" d="M513.1,104.5l23.4,0.4c9.9,0.5,19.6-2.8,27.2-9.2l36.8-31.2l12.9,2.5L627.8,89
			c4,6.1,5.2,13.7,3.3,20.8l0,0l14.1,10.1L625,143.8l-13.2-6.6l0,0c-1.7,5.7-6.1,10.1-11.6,12.1l-16.8,5.8
			c-4.5,1.6-9.2,2.7-13.9,3.6c-6.3,1.1-13.9,2.8-21.1,4c-4.2,0.7-8.4,1.8-12.5,3.1l-33.1,9.2C502.8,175,518.1,140,513.1,104.5z"/>
		<g>
			<path class="st10" d="M514.6,104.5l-1.5,0c3.1,22.4-1.9,44.7-5.9,58C511.2,150.4,517,127.8,514.6,104.5z"/>
			<path class="st10" d="M601.2,145.9l-16.8,4c-4.5,1.6-7.1,5.3-11.8,6.1c-6.3,1.1-17.2,3.4-24.5,4.7c-4.2,0.7-9.2,2.3-13.3,3.6
				l-30.7,7.3c-0.8,2.2-1.4,3.4-1.4,3.4l33.1-9.2c4.1-1.3,8.3-2.4,12.5-3.1c7.3-1.2,14.8-2.9,21.1-4c4.7-0.8,9.3-2,13.9-3.6
				l16.8-5.8c5.6-1.9,9.9-6.4,11.6-12.1C611.8,137.2,606.8,144,601.2,145.9z"/>
		</g>
		<path class="st0" d="M675.6,64.4c-2.4-2.9-3.1-8.9-3.1-8.9l3.9-2c8.4-20.4-17-32.8-17-32.8c-12.1-6.7-32.2,16.7-32.2,16.7
			c-8.4,17.9,2.4,35.2,2.4,35.2l-16-4.7l16.9,30.9c0,0,6.8-16.7,18.5-17.1c6.4,3,14,0.3,17.2-6l4.7-9.5l4.1-0.4
			C675.8,65.8,676,65,675.6,64.4z"/>
		<path class="st1" d="M669.7,47.2c6.8-16.4-9.6-23.8-15.8-27.6c-11.8,0.6-26.6,17.8-26.6,17.8c-8.4,17.9,2.4,35.2,2.4,35.2l-16-4.7
			l10.2,18.6c1.7-2.7,5.3-5.7,8.1-7.8c3.1-2.3,5.9-5.2,8-8.5c0.9-1.4,1.7-2.9,2-3.9c2.2-7.5,9.9-10.5,17.7-11.4l0,0
			c2.9,0.1,5.6-1.4,7.2-3.8L669.7,47.2z"/>
		<g>
			<path class="st4" d="M667.7,4.3c-4.2-2-8.6-3.8-13.2-4.2c-13.1-1.2-24.1,8.8-35.9,14.5c-10.7,5.2-23,7-34.8,5.2
				c-8.1-1.3-16.1-4.2-24.2-2.7c-15.9,2.9-24.6,21.3-39.9,26.5c-5.7,1.9-11.9,1.9-17.8,3.2c-13.3,2.9-21.3,14-11.6,25.4
				c8.2,9.7,12.7,8.2,24.7,8.5c12.5,0.3,24,12.3,35.9,8.3c4.7-1.6,8.3-5.5,13-7.1c5.7-2,11.9-0.3,17.7,1.1c9.7,2.3,20,3.8,29.7,1.7
				c9.8-2.1,19.1-8.5,22.4-18c1.4-4.1,1.7-8.7,4.2-12.3c3.9-5.7,12-3.1,17.8-3.6c13.7-1.2,36.2-11.6,30.9-29.1
				C684.2,13.2,675.7,8,667.7,4.3z"/>
		</g>
		<g>
			<path class="st6" d="M502.5,50.4c5.9-1.3,12.1-1.2,17.8-3.2c15.3-5.2,24-23.6,39.9-26.5c8-1.5,16.1,1.5,24.2,2.7
				c11.8,1.8,24.1,0,34.8-5.2C631,12.6,642,2.6,655.1,3.8c4.6,0.4,9,2.2,13.2,4.2c8,3.7,16.5,8.9,19.1,17.4c0.1,0.2,0.1,0.4,0.1,0.6
				c-0.1-1.4-0.3-2.8-0.7-4.3c-2.6-8.5-11-13.6-19.1-17.4c-4.2-2-8.6-3.8-13.2-4.2c-13.1-1.2-24.1,8.8-35.9,14.5
				c-10.7,5.2-23,7-34.8,5.2c-8.1-1.3-16.1-4.2-24.2-2.7c-15.9,2.9-24.6,21.3-39.9,26.5c-5.7,1.9-11.9,1.9-17.8,3.2
				c-10.8,2.4-18.1,10.1-15.3,19.1C486.6,58.4,493.3,52.4,502.5,50.4z"/>
		</g>
		<path class="st10" d="M589.1,123.4l11.7,25.6c5.3-2,9.3-6.4,11-11.8l2.8,1.4l0,0L589.1,123.4z"/>
	</g>
	<g>
		<g>
			<path class="st3" d="M47.5,79.7H2.8c-1.4,0-2.6-1.2-2.6-2.6V32.3c0-1.4,1.2-2.6,2.6-2.6h44.8c1.4,0,2.6,1.2,2.6,2.6v44.8
				C50.2,78.5,49,79.7,47.5,79.7z"/>
			<g>
				<path class="st11" d="M12.2,56.4L12.2,56.4l7,2.4v3.8L8.2,58v-3.3l11-4.5V54L12.2,56.4z"/>
				<path class="st11" d="M23.8,64.7h-4.1l6-19h4.1L23.8,64.7z"/>
				<path class="st11" d="M38.2,56.4L38.2,56.4l-7-2.4v-3.8l11,4.5v3.3l-11,4.5v-3.8L38.2,56.4z"/>
			</g>
		</g>
		<g id="XMLID_19_">
			<g id="XMLID_22_">
				<path id="XMLID_23_" class="st4" d="M164.4,59.3c0,10.8-8.8,19.6-19.6,19.6c-10.8,0-19.6-8.8-19.6-19.6
					c0-10.8,8.8-19.6,19.6-19.6C155.6,39.8,164.4,48.5,164.4,59.3z"/>
			</g>
		</g>
		<g id="XMLID_24_">
			<g id="XMLID_27_">
				<path id="XMLID_31_" class="st6" d="M89.2,148.6c0,10.9-8.8,19.7-19.7,19.7c-10.9,0-19.7-8.8-19.7-19.7
					c0-10.9,8.8-19.7,19.7-19.7C80.4,129,89.2,137.8,89.2,148.6z"/>
			</g>
		</g>
		<text transform="matrix(1 0 0 1 132.7896 62.8353)" class="st11 st12 st13">CSS</text>
		<text transform="matrix(1 0 0 1 62.517 152.1225)" class="st11 st12 st13">JS</text>
	</g>
	<g>
		<path class="st3" d="M1021.8,79.7h44.8c1.4,0,2.6-1.2,2.6-2.6V32.3c0-1.4-1.2-2.6-2.6-2.6h-44.8c-1.4,0-2.6,1.2-2.6,2.6v44.8
			C1019.2,78.5,1020.3,79.7,1021.8,79.7z"/>
		<g>
			<path class="st11" d="M1050.2,54v-3.8l11,4.5V58l-11,4.5v-3.8l7-2.3v-0.1L1050.2,54z"/>
			<path class="st11" d="M1039.2,45.7h4.1l6,19h-4.1L1039.2,45.7z"/>
			<path class="st11" d="M1038.2,58.8v3.8l-11-4.5v-3.3l11-4.5V54l-7,2.3v0.1L1038.2,58.8z"/>
		</g>
		<g id="XMLID_32_">
			<path id="XMLID_34_" class="st4" d="M904.6,59.3c0,10.8,8.8,19.6,19.6,19.6c10.8,0,19.6-8.8,19.6-19.6c0-10.8-8.8-19.6-19.6-19.6
				C913.4,39.8,904.6,48.5,904.6,59.3z"/>
		</g>
		<g id="XMLID_21_">
			<path id="XMLID_25_" class="st6" d="M979.8,148.6c0,10.9,8.8,19.7,19.7,19.7c10.9,0,19.7-8.8,19.7-19.7
				c0-10.9-8.8-19.7-19.7-19.7C988.6,129,979.8,137.8,979.8,148.6z"/>
		</g>
		<g>
			<text transform="matrix(1 0 0 1 906.2712 62.8353)" class="st11 st12 st13">HTML</text>
		</g>
		<g>
			<text transform="matrix(1 0 0 1 988.3939 152.1225)" class="st11 st12 st13">EJS</text>
		</g>
	</g>
</g>
</svg>
